<?xml version="1.0" encoding="UTF-8"?>
<svg version="1.1" xmlns="http://www.w3.org/2000/svg" width="500" height="500">
<path d="M0 0 C28.599758 -0.09367763 57.1994928 -0.16409368 85.79937363 -0.20724869 C99.08050541 -0.22782398 112.36150526 -0.2558478 125.64257812 -0.30175781 C137.22602413 -0.34178018 148.80940082 -0.36746934 160.39291406 -0.37635398 C166.51933139 -0.38154273 172.64555053 -0.39363214 178.77190399 -0.42292023 C184.55358416 -0.4503332 190.33498693 -0.45839333 196.11672592 -0.45243073 C198.2240157 -0.4535195 200.33131602 -0.46131749 202.43854904 -0.4768219 C219.44248062 -0.59565741 236.12186358 1.02200835 252.0625 7.375 C252.8457666 7.67607666 253.6290332 7.97715332 254.43603516 8.28735352 C261.86863274 11.21219692 268.6576852 14.81088154 275.33984375 19.1875 C276.20536865 19.74642944 276.20536865 19.74642944 277.08837891 20.31665039 C278.7230662 21.37935917 280.34062863 22.46827496 281.95703125 23.55859375 C285.56106568 25.26576795 287.21930855 25.07173447 291 24 C291.680625 23.71125 292.36125 23.4225 293.0625 23.125 C293.701875 23.08375 294.34125 23.0425 295 23 C297.4375 25.1875 297.4375 25.1875 300 28 C300.928125 28.721875 301.85625 29.44375 302.8125 30.1875 C303.534375 30.785625 304.25625 31.38375 305 32 C305 32.66 305 33.32 305 34 C305.66 34 306.32 34 307 34 C309 37 309 37 308.625 39.20703125 C308.315625 40.49673828 308.315625 40.49673828 308 41.8125 C307.26597518 48.24154496 310.06401838 51.65217813 313.8190918 56.4543457 C331.32756682 78.93747503 335.9810308 107.27456042 335 135 C319.45411235 135.89106418 303.92109635 136.13247397 288.35232544 136.17724609 C286.1987271 136.18408854 284.04513694 136.19434896 281.89157104 136.20800781 C278.82607308 136.22590045 275.7608567 136.23016724 272.6953125 136.23046875 C271.76192551 136.23761398 270.82853851 136.24475922 269.86686707 136.25212097 C268.57562675 136.24756645 268.57562675 136.24756645 267.25830078 136.24291992 C266.50541779 136.24434494 265.75253479 136.24576996 264.97683716 136.24723816 C263 136 263 136 260 134 C259.62890625 130.98046875 259.62890625 130.98046875 259.5625 127.1875 C259.0838636 115.81509905 256.00323962 106.64493256 249.48828125 97.2421875 C248 95 248 95 247 92 C246.34 92 245.68 92 245 92 C245 91.34 245 90.68 245 90 C244.41605469 89.72929687 243.83210937 89.45859375 243.23046875 89.1796875 C241.0162581 88.00859886 239.25589509 86.69764257 237.3125 85.125 C230.54829587 80.06419034 224.5899991 77.85185128 216.15907288 76.89907837 C215.41013797 76.81349722 214.66120306 76.72791606 213.88957316 76.63974154 C206.38769774 75.8427323 198.93097642 75.77004039 191.39233398 75.86474609 C189.92187103 75.87521366 188.45140113 75.88474093 186.98092651 75.89341736 C183.05011923 75.91920064 179.11953932 75.95786858 175.18886828 75.99914122 C171.05834962 76.04022411 166.92774425 76.06905407 162.7971344 76.09927368 C155.00255839 76.15811482 147.20811849 76.22771729 139.41366965 76.30134451 C130.52838341 76.38474006 121.64301172 76.45589776 112.75761306 76.52611041 C94.50494903 76.67061332 76.25244551 76.83021521 58 77 C57.67 78.98 57.34 80.96 57 83 C48.42 83 39.84 83 31 83 C30.67 81.02 30.34 79.04 30 77 C28.69011108 76.96241577 28.69011108 76.96241577 27.35375977 76.92407227 C24.12397448 76.82912291 20.89435846 76.72987971 17.66479492 76.62768555 C16.26510801 76.58428566 14.86536641 76.54261436 13.46557617 76.50268555 C11.45738505 76.44510555 9.44938851 76.38086 7.44140625 76.31640625 C6.23170166 76.27974854 5.02199707 76.24309082 3.77563477 76.20532227 C1 76 1 76 0 75 C-0.09492722 72.65746218 -0.12559791 70.34453896 -0.11352539 68.00170898 C-0.11367142 67.27004517 -0.11381744 66.53838135 -0.1139679 65.7845459 C-0.11326867 63.35503216 -0.10547585 60.92559417 -0.09765625 58.49609375 C-0.0957921 56.81600486 -0.09436819 55.13591543 -0.09336853 53.45582581 C-0.08954307 49.02526357 -0.07971256 44.5947339 -0.06866455 40.16418457 C-0.05845103 35.64657024 -0.05387104 31.12895066 -0.04882812 26.61132812 C-0.03809031 17.74087107 -0.02101356 8.87043824 0 0 Z " fill="#766C75" transform="translate(87,104)"/>
<path d="M0 0 C7.26 0 14.52 0 22 0 C23.44375 2.660625 24.8875 5.32125 26.375 8.0625 C30.2294005 15.09130225 34.36791737 21.82551659 38.95068359 28.40258789 C42 32.80967838 42 32.80967838 42 35 C42.66 35 43.32 35 44 35 C45.19140625 36.58203125 45.19140625 36.58203125 46.5625 38.8125 C49.74522485 43.78797557 53.41464539 48.22411365 57.2421875 52.71484375 C59 55 59 55 59 57 C59.66 57 60.32 57 61 57 C62.7265625 58.6796875 62.7265625 58.6796875 64.625 60.875 C65.25664062 61.59429687 65.88828125 62.31359375 66.5390625 63.0546875 C68 65 68 65 68 67 C68.66 67 69.32 67 70 67 C71.375 68.36328125 71.375 68.36328125 73 70.3125 C75.9331346 73.77837512 78.96360143 77.11892083 82.0625 80.4375 C99.71386515 99.88074616 105.19803268 124.4309844 104.19970703 150.12011719 C102.76214095 170.85059328 93.14971753 190.44839198 79.375 205.8125 C78 207 78 207 76 207 C76 207.66 76 208.32 76 209 C73.76795517 210.96372768 71.53182829 212.80496976 69.1875 214.625 C68.54490234 215.140625 67.90230469 215.65625 67.24023438 216.1875 C66.61826172 216.67476562 65.99628906 217.16203125 65.35546875 217.6640625 C64.78465576 218.11217285 64.21384277 218.5602832 63.62573242 219.02197266 C62 220 62 220 59 220 C59 220.66 59 221.32 59 222 C49.17265566 226.5970133 39.72776971 230.95581081 29 233 C28.23888916 233.16983398 27.47777832 233.33966797 26.69360352 233.51464844 C1.44623234 238.06388925 -23.02543549 231.12068607 -43.890625 217.05078125 C-49.05696594 213.42467297 -53.2022332 210.02645605 -57 205 C-57.76570313 204.26394531 -58.53140625 203.52789062 -59.3203125 202.76953125 C-62.31254745 199.67697356 -64.6412978 196.45836015 -67 192.875 C-67.65572998 191.88040771 -67.65572998 191.88040771 -68.32470703 190.86572266 C-81.8143454 170.01443766 -85.87899385 145.2432907 -81 121 C-77.5305869 106.86240158 -71.63937212 94.73440492 -63 83 C-62.34 82.01 -61.68 81.02 -61 80 C-60.34 80 -59.68 80 -59 80 C-59 79.34 -59 78.68 -59 78 C-58.34 78 -57.68 78 -57 78 C-57 77.34 -57 76.68 -57 76 C-56.34 76 -55.68 76 -55 76 C-54.75378906 75.42378906 -54.50757813 74.84757812 -54.25390625 74.25390625 C-52.79837901 71.6375847 -51.11391269 69.99108164 -48.9375 67.9375 C-41.72736201 60.87709331 -35.66315162 52.90409584 -29.5 44.9375 C-29.06631104 44.37708008 -28.63262207 43.81666016 -28.18579102 43.23925781 C-25.88815523 40.2516344 -25.88815523 40.2516344 -24 37 C-23.34 37 -22.68 37 -22 37 C-21.75636719 36.31164062 -21.51273437 35.62328125 -21.26171875 34.9140625 C-19.78002067 31.49193629 -17.86044014 28.47455033 -15.8125 25.375 C-15.00241889 24.13163111 -14.19252527 22.88814005 -13.3828125 21.64453125 C-12.98094727 21.0304541 -12.57908203 20.41637695 -12.16503906 19.78369141 C-10.49039547 17.21978821 -8.83644434 14.64299082 -7.1875 12.0625 C-6.66542969 11.24910156 -6.14335937 10.43570312 -5.60546875 9.59765625 C-3.65766432 6.4460992 -1.83814314 3.21675049 0 0 Z M-51 96 C-51.30222566 98.73486016 -51.40941934 101.24440427 -51.38818359 103.98217773 C-51.39344055 104.80670441 -51.39869751 105.63123108 -51.40411377 106.48074341 C-51.4173527 109.21521774 -51.40856128 111.94911316 -51.3984375 114.68359375 C-51.40045731 116.57927055 -51.40336797 118.47494659 -51.40713501 120.37062073 C-51.4115638 124.3478229 -51.40511024 128.32482321 -51.39111328 132.30200195 C-51.37403271 137.40461796 -51.38385192 142.50676023 -51.40183067 147.60935879 C-51.41266349 151.52553384 -51.40922428 155.44159632 -51.4014473 159.35777473 C-51.39944329 161.23927936 -51.40191156 163.12079414 -51.40888596 165.00228691 C-51.41649091 167.6312764 -51.4049094 170.25949572 -51.38818359 172.88842773 C-51.39425629 173.66931259 -51.40032898 174.45019745 -51.40658569 175.25474548 C-51.37009761 179.3735906 -51.37009761 179.3735906 -49.63589478 183.01478577 C-47.95160592 184.23610622 -47.95160592 184.23610622 -45.4375 183.875 C-42.6738389 183.15610832 -42.6738389 183.15610832 -41 180 C-40.76034953 177.53615097 -40.62758 175.17459424 -40.5859375 172.70703125 C-40.56657135 172.00100266 -40.5472052 171.29497406 -40.5272522 170.56755066 C-40.46754776 168.31598939 -40.4211086 166.06437672 -40.375 163.8125 C-40.33681171 162.28448311 -40.29775948 160.75648755 -40.2578125 159.22851562 C-40.16185404 155.48585065 -40.07778989 151.7430849 -40 148 C-39.23445801 148.00112793 -38.46891602 148.00225586 -37.68017578 148.00341797 C-34.16092321 147.99120019 -30.64377727 147.93340294 -27.125 147.875 C-25.92101562 147.87757813 -24.71703125 147.88015625 -23.4765625 147.8828125 C-15.28005347 147.70462752 -9.36867285 146.35439706 -3 141 C2.94073776 134.11549077 5.3603615 127.53519095 4.875 118.5 C3.94807537 110.7181444 1.03772289 105.07717607 -5 100 C-13.49349958 93.90608669 -20.79224519 93.81349143 -31.02978516 93.81469727 C-33.12552873 93.81249945 -35.22075483 93.79428142 -37.31640625 93.77539062 C-38.65103987 93.77245831 -39.98567599 93.77047243 -41.3203125 93.76953125 C-43.13426514 93.76336792 -43.13426514 93.76336792 -44.98486328 93.75708008 C-48.17950529 93.76860555 -48.17950529 93.76860555 -51 96 Z M25.375 101.1875 C23.79853784 102.88639137 23.79853784 102.88639137 24 105 C23.34 105 22.68 105 22 105 C21.34510627 106.37070781 20.70155037 107.74683444 20.0625 109.125 C19.70285156 109.89070313 19.34320313 110.65640625 18.97265625 111.4453125 C16.84276874 117.03947488 16.84050306 122.71612996 16.83203125 128.6171875 C16.82870285 129.43317413 16.82537445 130.24916077 16.82194519 131.08987427 C16.81690226 132.8094222 16.81453605 134.52897984 16.81469727 136.24853516 C16.81251266 138.85986681 16.79433417 141.47077427 16.77539062 144.08203125 C16.77245565 145.76041524 16.77047155 147.43880121 16.76953125 149.1171875 C16.76234573 149.8882785 16.75516022 150.65936951 16.74775696 151.4538269 C16.78667868 160.82574402 19.094959 168.814002 25.63671875 175.73046875 C32.10884543 181.62083124 39.49757146 184.39206903 48.2421875 184.27734375 C55.9507373 183.50212132 62.92698642 179.83461104 68 174 C71.51838138 168.99201819 73.87777153 164.23365177 74 158 C73.47462432 155.61116531 73.47462432 155.61116531 72 154 C70.16666667 152.83333333 70.16666667 152.83333333 68 153 C64.91090429 155.1530061 63.74305848 157.41954511 62.5625 160.875 C60.93219225 165.62415737 58.5510335 169.3806483 54.203125 172.140625 C49.16539097 174.10569856 43.02595937 173.76468287 37.8359375 172.453125 C33.34661937 170.35679143 31.13650931 166.77371282 29.04516602 162.42431641 C26.94033472 155.52817913 27.30533563 148.32131525 27.40307617 141.16796875 C27.43751257 138.3739802 27.42366615 135.58314135 27.40429688 132.7890625 C27.41119374 130.9921742 27.42086468 129.19529395 27.43359375 127.3984375 C27.42863388 126.57427338 27.42367401 125.75010925 27.41856384 124.90097046 C27.54570768 118.57466497 29.06624961 113.1721789 33.44700623 108.43539429 C38.21120998 104.22369156 41.66096815 103.77355505 47.89453125 103.83203125 C51.11844609 104.08922668 53.93712278 104.97904093 57 106 C57 106.66 57 107.32 57 108 C57.763125 108.66 58.52625 109.32 59.3125 110 C62.59429716 113.0605524 63.21114355 116.611952 64.12890625 120.890625 C64.7908542 123.14662139 64.7908542 123.14662139 66.83984375 123.921875 C69.44028912 124.01592366 70.80003004 123.33569604 73 122 C73.72790099 114.25189832 72.35178114 109.43441926 68 103 C67.34 103 66.68 103 66 103 C66 102.34 66 101.68 66 101 C65.34 101 64.68 101 64 101 C64 100.34 64 99.68 64 99 C62.9275 98.360625 61.855 97.72125 60.75 97.0625 C60.14671875 96.70285156 59.5434375 96.34320313 58.921875 95.97265625 C47.90640558 90.39775404 34.38802406 93.67664662 25.375 101.1875 Z " fill="#F8A316" transform="translate(374,252)"/>
<path d="M0 0 C0.91644287 0.00523682 1.83288574 0.01047363 2.77709961 0.01586914 C4.26113281 0.02070313 4.26113281 0.02070313 5.77514648 0.02563477 C6.81606445 0.03401367 7.85698242 0.04239258 8.92944336 0.05102539 C10.49662109 0.05779297 10.49662109 0.05779297 12.09545898 0.06469727 C14.68600996 0.07652627 17.27644895 0.0930085 19.86694336 0.11352539 C20.47280273 1.23887695 21.07866211 2.36422852 21.70288086 3.52368164 C26.382186 12.12531781 31.21629922 20.47722801 36.81762695 28.51611328 C39.86694336 32.92320377 39.86694336 32.92320377 39.86694336 35.11352539 C40.52694336 35.11352539 41.18694336 35.11352539 41.86694336 35.11352539 C43.05834961 36.69555664 43.05834961 36.69555664 44.42944336 38.92602539 C47.61216821 43.90150096 51.28158875 48.33763905 55.10913086 52.82836914 C56.86694336 55.11352539 56.86694336 55.11352539 56.86694336 57.11352539 C57.52694336 57.11352539 58.18694336 57.11352539 58.86694336 57.11352539 C60.59350586 58.79321289 60.59350586 58.79321289 62.49194336 60.98852539 C63.12358398 61.70782227 63.75522461 62.42711914 64.40600586 63.16821289 C65.86694336 65.11352539 65.86694336 65.11352539 65.86694336 67.11352539 C66.52694336 67.11352539 67.18694336 67.11352539 67.86694336 67.11352539 C69.24194336 68.47680664 69.24194336 68.47680664 70.86694336 70.42602539 C73.80007796 73.89190051 76.83054479 77.23244623 79.92944336 80.55102539 C97.58080851 99.99427155 103.06497604 124.54450979 102.06665039 150.23364258 C100.62908431 170.96411867 91.01666089 190.56191737 77.24194336 205.92602539 C75.86694336 207.11352539 75.86694336 207.11352539 73.86694336 207.11352539 C73.86694336 207.77352539 73.86694336 208.43352539 73.86694336 209.11352539 C71.63489853 211.07725307 69.39877165 212.91849515 67.05444336 214.73852539 C66.4118457 215.25415039 65.76924805 215.76977539 65.10717773 216.30102539 C64.48520508 216.78829102 63.86323242 217.27555664 63.22241211 217.77758789 C62.65159912 218.22569824 62.08078613 218.67380859 61.49267578 219.13549805 C59.86694336 220.11352539 59.86694336 220.11352539 56.86694336 220.11352539 C56.86694336 220.77352539 56.86694336 221.43352539 56.86694336 222.11352539 C47.03959902 226.71053869 37.59471306 231.0693362 26.86694336 233.11352539 C26.10583252 233.28335938 25.34472168 233.45319336 24.56054688 233.62817383 C1.05872222 237.86289035 -23.44270933 232.25139927 -43.13305664 219.11352539 C-45.84801988 217.17237089 -48.5113252 215.17868814 -51.13305664 213.11352539 C-49.13305664 212.11352539 -49.13305664 212.11352539 -45.69165039 213.06274414 C-40.47805758 214.45875918 -35.54671836 214.21537637 -30.19555664 213.92602539 C-28.78886719 213.87865234 -28.78886719 213.87865234 -27.35375977 213.83032227 C-21.90429196 213.56902047 -17.25728209 212.73622854 -12.14160156 210.84277344 C-9.40312078 209.84850553 -6.5940143 209.27072465 -3.75805664 208.61352539 C7.0483193 205.59340286 19.23275268 199.46935598 26.86694336 191.11352539 C28.20027669 190.44685872 29.53361003 189.78019206 30.86694336 189.11352539 C32.23781251 187.81881564 33.58035173 186.49201642 34.86694336 185.11352539 C33.87694336 184.12352539 32.88694336 183.13352539 31.86694336 182.11352539 C32.81569336 182.27852539 33.76444336 182.44352539 34.74194336 182.61352539 C45.2863893 184.03501005 53.17219864 182.87420586 62.17944336 176.92602539 C67.33431876 171.53138834 70.56382678 165.69143985 70.86694336 158.11352539 C70.53694336 157.12352539 70.20694336 156.13352539 69.86694336 155.11352539 C68.01470666 154.10874502 68.01470666 154.10874502 65.86694336 154.11352539 C63.20181708 156.27516434 62.74858107 157.45170335 61.55444336 160.86352539 C59.75033394 166.00998488 56.67483936 170.32341686 52.03491211 173.28149414 C46.88449096 175.25814226 40.68900738 175.02342165 35.48022461 173.34399414 C29.62018305 170.18515269 26.75299423 165.36630606 24.86694336 159.11352539 C24.08433555 153.20258975 24.18871318 147.2320698 24.27001953 141.28149414 C24.30445593 138.48750559 24.29060951 135.69666674 24.27124023 132.90258789 C24.2781371 131.10569959 24.28780804 129.30881934 24.30053711 127.51196289 C24.29309731 126.27571671 24.29309731 126.27571671 24.2855072 125.01449585 C24.41913128 118.36575283 26.26532797 113.12021686 30.64819336 108.05493164 C31.21538086 107.59989258 31.78256836 107.14485352 32.36694336 106.67602539 C32.93413086 106.20293945 33.50131836 105.72985352 34.08569336 105.24243164 C38.21591729 102.62481165 43.10672528 102.58363098 47.86694336 103.11352539 C50.35882094 103.92068724 52.51293182 104.93651962 54.86694336 106.11352539 C54.86694336 106.77352539 54.86694336 107.43352539 54.86694336 108.11352539 C55.46506836 108.29915039 56.06319336 108.48477539 56.67944336 108.67602539 C59.96846689 110.83738371 60.58863642 113.46121986 61.86694336 117.11352539 C62.26458599 119.10173852 62.62149502 121.10084901 62.86694336 123.11352539 C66.33194336 122.61852539 66.33194336 122.61852539 69.86694336 122.11352539 C70.37809495 115.05679366 69.80063647 111.01406506 65.86694336 105.11352539 C65.86694336 104.45352539 65.86694336 103.79352539 65.86694336 103.11352539 C65.20694336 103.11352539 64.54694336 103.11352539 63.86694336 103.11352539 C63.86694336 102.45352539 63.86694336 101.79352539 63.86694336 101.11352539 C63.20694336 101.11352539 62.54694336 101.11352539 61.86694336 101.11352539 C61.86694336 100.45352539 61.86694336 99.79352539 61.86694336 99.11352539 C59.88694336 98.12352539 59.88694336 98.12352539 57.86694336 97.11352539 C59.51694336 97.11352539 61.16694336 97.11352539 62.86694336 97.11352539 C62.66198242 96.56825195 62.45702148 96.02297852 62.24584961 95.46118164 C60.79096516 91.38889742 59.73500692 87.75697603 59.49194336 83.42602539 C59.15815015 79.48181587 57.9802719 77.59216239 55.18334961 74.69165039 C53.64418442 72.84647907 52.89054659 71.08863816 51.99194336 68.86352539 C50.08643164 64.24031663 47.44025585 60.46476392 44.45288086 56.47290039 C42.86694336 54.11352539 42.86694336 54.11352539 41.84350586 51.37915039 C41.52124023 50.63149414 41.19897461 49.88383789 40.86694336 49.11352539 C39.38194336 48.61852539 39.38194336 48.61852539 37.86694336 48.11352539 C36.33178711 46.51977539 36.33178711 46.51977539 34.80444336 44.61352539 C32.68972569 41.93246138 32.68972569 41.93246138 29.86694336 40.11352539 C29.86694336 39.45352539 29.86694336 38.79352539 29.86694336 38.11352539 C29.20694336 38.11352539 28.54694336 38.11352539 27.86694336 38.11352539 C27.86694336 37.45352539 27.86694336 36.79352539 27.86694336 36.11352539 C26.38194336 35.61852539 26.38194336 35.61852539 24.86694336 35.11352539 C24.86694336 34.45352539 24.86694336 33.79352539 24.86694336 33.11352539 C24.20694336 33.11352539 23.54694336 33.11352539 22.86694336 33.11352539 C19.86694336 28.72891001 19.86694336 28.72891001 19.86694336 26.11352539 C19.26881836 25.86602539 18.67069336 25.61852539 18.05444336 25.36352539 C15.55067417 23.93280014 14.38621948 22.54436719 12.86694336 20.11352539 C12.86694336 19.45352539 12.86694336 18.79352539 12.86694336 18.11352539 C12.22756836 17.86602539 11.58819336 17.61852539 10.92944336 17.36352539 C8.86694336 16.11352539 8.86694336 16.11352539 8.11694336 13.98852539 C8.03444336 13.36977539 7.95194336 12.75102539 7.86694336 12.11352539 C7.20694336 12.11352539 6.54694336 12.11352539 5.86694336 12.11352539 C5.37194336 10.13352539 5.37194336 10.13352539 4.86694336 8.11352539 C4.20694336 8.11352539 3.54694336 8.11352539 2.86694336 8.11352539 C2.20694336 6.46352539 1.54694336 4.81352539 0.86694336 3.11352539 C-0.12305664 3.77352539 -1.11305664 4.43352539 -2.13305664 5.11352539 C-2.31868164 6.10352539 -2.31868164 6.10352539 -2.50805664 7.11352539 C-2.71430664 7.77352539 -2.92055664 8.43352539 -3.13305664 9.11352539 C-5.67211914 10.23852539 -5.67211914 10.23852539 -8.13305664 11.11352539 C-7.32299138 9.46649234 -6.50993454 7.82093033 -5.69555664 6.17602539 C-5.2430957 5.25950195 -4.79063477 4.34297852 -4.32446289 3.39868164 C-2.62534935 0.13972616 -2.62534935 0.13972616 0 0 Z " fill="#F38405" transform="translate(376.133056640625,251.886474609375)"/>
<path d="M0 0 C1.35568336 0.00333092 1.35568336 0.00333092 2.73875427 0.00672913 C3.75973709 0.00680466 4.78071991 0.00688019 5.8326416 0.00695801 C6.94304306 0.01211929 8.05344452 0.01728058 9.19749451 0.02259827 C10.89336952 0.02472069 10.89336952 0.02472069 12.62350464 0.02688599 C16.25105891 0.03250433 19.8785525 0.04505994 23.50608826 0.05775452 C25.95856133 0.06276715 28.41103536 0.06733047 30.86351013 0.07142639 C36.89022371 0.08247971 42.91690165 0.09923568 48.94358826 0.12025452 C48.96671271 9.8817644 48.98450387 19.64326781 48.99540043 29.40479946 C49.00062903 33.93699546 49.00772626 38.46917278 49.01902771 43.00135803 C49.0298574 47.37148282 49.03586526 51.74158959 49.0384655 56.11172676 C49.0403196 57.78276414 49.04393993 59.45380049 49.04931831 61.12483025 C49.05652984 63.45723003 49.05757915 65.78955444 49.05711365 68.1219635 C49.06070892 68.81967361 49.0643042 69.51738373 49.06800842 70.23623657 C49.05764042 75.00620236 49.05764042 75.00620236 47.94358826 76.12025452 C46.45567451 76.22375016 44.96291384 76.25876164 43.47142029 76.26551819 C42.5201828 76.27189804 41.56894531 76.27827789 40.58888245 76.28485107 C39.55351349 76.2859639 38.51814453 76.28707672 37.45140076 76.28822327 C36.39452057 76.29155167 35.33764038 76.29488007 34.24873352 76.29830933 C32.0075372 76.30338365 29.76633329 76.3057175 27.52513123 76.30555725 C24.09027163 76.30774073 20.65573457 76.325883 17.22093201 76.34486389 C15.04775603 76.34779826 12.87457851 76.34978277 10.70140076 76.35072327 C9.15442001 76.36150154 9.15442001 76.36150154 7.57618713 76.37249756 C6.61864532 76.36942093 5.66110352 76.3663443 4.67454529 76.36317444 C3.83150848 76.36459946 2.98847168 76.36602448 2.11988831 76.36749268 C-0.05641174 76.12025452 -0.05641174 76.12025452 -3.05641174 74.12025452 C-3.42390442 71.1151123 -3.42390442 71.1151123 -3.41285706 67.207901 C-3.41490143 66.49720459 -3.4169458 65.78650818 -3.41905212 65.05427551 C-3.42206598 62.69970669 -3.40356725 60.3458341 -3.38453674 57.99134827 C-3.38148034 56.35992608 -3.37960332 54.72850129 -3.37886047 53.09707642 C-3.37425379 49.67639701 -3.35981299 46.25595254 -3.33766174 42.83534241 C-3.30935667 38.44113268 -3.29844851 34.04710804 -3.29397964 29.65281582 C-3.28983166 26.28403862 -3.28001978 22.91529919 -3.26810455 19.54654121 C-3.26239034 17.92574938 -3.25763547 16.30495388 -3.25383759 14.68415642 C-3.24699588 12.42377649 -3.2333742 10.16354606 -3.21754456 7.9032135 C-3.21071655 6.61462936 -3.20388855 5.32604523 -3.19685364 3.99841309 C-3.010338 0.17603806 -3.010338 0.17603806 0 0 Z " fill="#726972" transform="translate(25.056411743164063,103.87974548339844)"/>
<path d="M0 0 C0.69177841 0.01953232 1.38355682 0.03906464 2.09629822 0.05918884 C3.17584023 0.06268593 3.17584023 0.06268593 4.27719116 0.06625366 C5.79440715 0.0759738 7.31158776 0.09772172 8.82847595 0.13072205 C11.1507181 0.18019368 13.47084194 0.19220693 15.79356384 0.19786072 C17.26949784 0.21194545 18.74541346 0.22814942 20.22129822 0.24668884 C21.26200218 0.25473289 21.26200218 0.25473289 22.32373047 0.26293945 C25.94930798 0.35245188 27.49125391 0.55035722 30.59239197 2.61778259 C31.74739705 6.08279783 31.72649369 8.78793006 31.73765564 12.44419861 C31.74101425 13.13392761 31.74437286 13.82365662 31.74783325 14.5342865 C31.75733018 16.81343893 31.75928546 19.09251786 31.76036072 21.37168884 C31.76357322 22.95444774 31.76693729 24.53720633 31.77044678 26.1199646 C31.77643421 29.43622019 31.77828698 32.75244972 31.7776947 36.06871033 C31.77759288 40.3249437 31.79126706 44.58101099 31.80846691 48.83720493 C31.81956398 52.10478488 31.82161465 55.37232432 31.82108498 58.63992119 C31.82226772 60.20965589 31.82670587 61.77939154 31.83441734 63.34910774 C31.84417495 65.53977889 31.84135666 67.73008454 31.83531189 69.92076111 C31.83673691 71.16857864 31.83816193 72.41639618 31.83963013 73.70202637 C31.59239197 76.61778259 31.59239197 76.61778259 29.59239197 78.61778259 C26.8188612 78.80536165 24.14698552 78.87338957 21.37364197 78.84825134 C20.55996155 78.84779312 19.74628113 78.8473349 18.90794373 78.84686279 C17.18637129 78.8438397 15.46480161 78.8359517 13.74327087 78.82359314 C11.10303595 78.80535611 8.463152 78.80308331 5.82286072 78.80332947 C4.15228476 78.79841354 2.48171118 78.79258489 0.81114197 78.78575134 C-0.37795776 78.78408211 -0.37795776 78.78408211 -1.59107971 78.78237915 C-7.17547149 78.73385086 -7.17547149 78.73385086 -9.40760803 77.61778259 C-9.50034102 68.31656933 -9.57138952 59.01551552 -9.61485672 49.71394062 C-9.63572024 45.39469369 -9.6640149 41.07576334 -9.70936584 36.75669861 C-9.75286831 32.58752524 -9.77675444 28.41865613 -9.787117 24.2492733 C-9.79450053 22.65964659 -9.80891907 21.0700363 -9.83052826 19.48053932 C-9.85962212 17.2515901 -9.86356174 15.0238935 -9.86170959 12.79478455 C-9.87059204 11.52681534 -9.87947449 10.25884613 -9.8886261 8.95245361 C-9.00073559 2.79712819 -6.24171411 0.05829947 0 0 Z " fill="#AFA9B1" transform="translate(163.40760803222656,13.382217407226563)"/>
<path d="M0 0 C0.886875 0.53625 1.77375 1.0725 2.6875 1.625 C7.62706375 6.69806547 10.29265301 12.52583395 10.5 19.625 C10.14366389 26.45317031 8.35955065 32.48112467 3.62109375 37.61328125 C-2.58047851 42.91824066 -9.05158245 44.82103778 -17.1328125 44.48828125 C-29.57375877 42.9174547 -41.69458302 39.13828415 -53.71533203 35.67407227 C-59.34223053 34.08796237 -64.88422185 33.08436681 -70.69140625 32.359375 C-73 32 -73 32 -74 31 C-74.27898825 27.36173954 -74.23177293 23.71019202 -74.25 20.0625 C-74.270625 19.03447266 -74.29125 18.00644531 -74.3125 16.94726562 C-74.31765625 15.96564453 -74.3228125 14.98402344 -74.328125 13.97265625 C-74.3374707 13.06781494 -74.34681641 12.16297363 -74.35644531 11.23071289 C-74.23881836 10.49457764 -74.12119141 9.75844238 -74 9 C-71.10671573 7.07114382 -69.92645166 6.6477616 -66.6328125 6.140625 C-65.7569751 5.99729736 -64.8811377 5.85396973 -63.97875977 5.70629883 C-63.03701904 5.55572021 -62.09527832 5.4051416 -61.125 5.25 C-52.20370782 3.74176926 -43.61743708 1.66486645 -34.96728516 -0.98144531 C-23.61221466 -4.43410699 -10.37216771 -7.07980898 0 0 Z " fill="#746A73" transform="translate(281,25)"/>
<path d="M0 0 C8.84151879 2.37313241 17.62299891 4.18643057 26.67578125 5.51953125 C30 6.0625 30 6.0625 32 7.0625 C32 14.9825 32 22.9025 32 31.0625 C29.7725 31.454375 27.545 31.84625 25.25 32.25 C13.42743673 34.41551901 1.66805864 37.24776033 -9.8125 40.8125 C-18.71636527 43.553342 -30.31573019 45.19402965 -39.12109375 41.296875 C-45.54872211 37.07415034 -50.40958265 30.60918625 -52 23.0625 C-52.7576419 16.24372289 -51.39821894 9.32628302 -47.30078125 3.75 C-34.13383653 -10.32233385 -16.44293317 -4.49364224 0 0 Z " fill="#736972" transform="translate(110,25.9375)"/>
<path d="M0 0 C28.599758 -0.09367763 57.1994928 -0.16409368 85.79937363 -0.20724869 C99.08050541 -0.22782398 112.36150526 -0.2558478 125.64257812 -0.30175781 C137.22602413 -0.34178018 148.80940082 -0.36746934 160.39291406 -0.37635398 C166.51933139 -0.38154273 172.64555053 -0.39363214 178.77190399 -0.42292023 C184.55358416 -0.4503332 190.33498693 -0.45839333 196.11672592 -0.45243073 C198.2240157 -0.4535195 200.33131602 -0.46131749 202.43854904 -0.4768219 C219.44248062 -0.59565741 236.12186358 1.02200835 252.0625 7.375 C252.8457666 7.67607666 253.6290332 7.97715332 254.43603516 8.28735352 C261.86863274 11.21219692 268.6576852 14.81088154 275.33984375 19.1875 C276.20536865 19.74642944 276.20536865 19.74642944 277.08837891 20.31665039 C278.7230662 21.37935917 280.34062863 22.46827496 281.95703125 23.55859375 C285.56106568 25.26576795 287.21930855 25.07173447 291 24 C291.680625 23.71125 292.36125 23.4225 293.0625 23.125 C293.701875 23.08375 294.34125 23.0425 295 23 C297.4375 25.1875 297.4375 25.1875 300 28 C300.928125 28.721875 301.85625 29.44375 302.8125 30.1875 C303.534375 30.785625 304.25625 31.38375 305 32 C305 32.66 305 33.32 305 34 C305.66 34 306.32 34 307 34 C309 37 309 37 308.625 39.20703125 C308.315625 40.49673828 308.315625 40.49673828 308 41.8125 C307.26597518 48.24154496 310.06401838 51.65217813 313.8190918 56.4543457 C331.32756682 78.93747503 335.9810308 107.27456042 335 135 C318.65587063 135.7838511 302.36257619 136.14374476 286 136 C286 135.67 286 135.34 286 135 C288.39554157 134.82779162 290.79127698 134.66223285 293.1875 134.5 C293.84169922 134.45230469 294.49589844 134.40460938 295.16992188 134.35546875 C301.77902446 133.91695009 308.37882876 133.95406838 315 134 C313.99738715 113.13261066 311.94624552 94.74884005 304.171875 75.1328125 C303 72 303 72 303 70 C302.34 70 301.68 70 301 70 C299.82845707 67.71070947 298.66261926 65.41881638 297.5 63.125 C297.16613281 62.47402344 296.83226562 61.82304687 296.48828125 61.15234375 C294 56.2265625 294 56.2265625 294 54 C293.01 53.67 292.02 53.34 291 53 C289.46484375 50.85546875 289.46484375 50.85546875 287.9375 48.1875 C287.43089844 47.31480469 286.92429687 46.44210938 286.40234375 45.54296875 C285.52807859 43.95760212 284.69760102 42.34628456 283.9375 40.703125 C283.4734375 39.86007813 283.4734375 39.86007813 283 39 C282.360625 38.855625 281.72125 38.71125 281.0625 38.5625 C280.381875 38.376875 279.70125 38.19125 279 38 C278.608125 37.29875 278.21625 36.5975 277.8125 35.875 C275.54224594 32.27390735 272.76347738 30.3294062 269.3515625 27.84375 C267 26 267 26 264.58984375 23.52734375 C257.03453243 16.15436272 246.44699848 11.49370739 237 7 C237 6.34 237 5.68 237 5 C235.700625 4.87625 234.40125 4.7525 233.0625 4.625 C229.91844594 4.32556628 226.96453329 3.75103378 223.90692234 2.99152565 C219.10425664 1.91825076 214.54820408 1.70997859 209.6415863 1.7215271 C208.74368207 1.7157347 207.84577783 1.7099423 206.92066437 1.70397437 C203.93592324 1.68707715 200.95133769 1.68410676 197.96655273 1.68115234 C195.81746547 1.67184707 193.6683818 1.66167751 191.51930237 1.65071106 C185.70184665 1.62346462 179.88441508 1.60827749 174.06691241 1.59528303 C167.98102733 1.57962907 161.89519137 1.55284606 155.80934143 1.5272522 C144.29238711 1.48050454 132.7754235 1.44374098 121.25842291 1.41057932 C108.14356025 1.3723296 95.02874699 1.32292688 81.91392601 1.27259517 C54.9426493 1.16933497 27.97135176 1.0815275 1 1 C1 25.09 1 49.18 1 74 C9.58 73.67 18.16 73.34 27 73 C27.66 73.33 28.32 73.66 29 74 C28.67 74.99 28.34 75.98 28 77 C23.52055965 76.86189095 19.04153217 76.71322584 14.5625 76.5625 C13.28310547 76.52318359 12.00371094 76.48386719 10.68554688 76.44335938 C9.47060547 76.40146484 8.25566406 76.35957031 7.00390625 76.31640625 C5.87799072 76.27974854 4.7520752 76.24309082 3.59204102 76.20532227 C1 76 1 76 0 75 C-0.09492722 72.65746218 -0.12559791 70.34453896 -0.11352539 68.00170898 C-0.11367142 67.27004517 -0.11381744 66.53838135 -0.1139679 65.7845459 C-0.11326867 63.35503216 -0.10547585 60.92559417 -0.09765625 58.49609375 C-0.0957921 56.81600486 -0.09436819 55.13591543 -0.09336853 53.45582581 C-0.08954307 49.02526357 -0.07971256 44.5947339 -0.06866455 40.16418457 C-0.05845103 35.64657024 -0.05387104 31.12895066 -0.04882812 26.61132812 C-0.03809031 17.74087107 -0.02101356 8.87043824 0 0 Z " fill="#423C40" transform="translate(87,104)"/>
<path d="M0 0 C0 0.66 0 1.32 0 2 C0.598125 2.185625 1.19625 2.37125 1.8125 2.5625 C5.07905236 4.70909155 5.67582845 7.38862304 7 11 C7.54140625 12.35931641 7.54140625 12.35931641 8.09375 13.74609375 C9.15096548 17.54204417 9.15716205 20.92873099 8.875 24.8125 C8.82641846 25.52100098 8.77783691 26.22950195 8.7277832 26.95947266 C8.22542908 32.75014909 6.68707491 36.94982376 4 42 C3.33708249 43.65994544 2.69178758 45.32701595 2.0625 47 C0.1266469 51.92061465 -2.31832288 56.44994129 -5 61 C-5.66 61 -6.32 61 -7 61 C-7.33 62.98 -7.66 64.96 -8 67 C-13.12401833 67.32822893 -17.56626046 67.58411611 -22.375 65.625 C-29.69787833 58.30212167 -30.58114743 50.59685358 -30.64648438 40.66348267 C-30.63860922 38.83158713 -30.62195203 36.99971023 -30.59692383 35.16796875 C-30.56248743 32.3739802 -30.57633385 29.58314135 -30.59570312 26.7890625 C-30.58880626 24.9921742 -30.57913532 23.19529395 -30.56640625 21.3984375 C-30.57136612 20.57427338 -30.57632599 19.75010925 -30.58143616 18.90097046 C-30.44781208 12.25222744 -28.60161539 7.00669147 -24.21875 1.94140625 C-23.6515625 1.48636719 -23.084375 1.03132813 -22.5 0.5625 C-21.9328125 0.08941406 -21.365625 -0.38367188 -20.78125 -0.87109375 C-14.11260022 -5.09749679 -6.5465708 -3.2732854 0 0 Z " fill="#F9A317" transform="translate(431,358)"/>
<path d="M0 0 C6.10579486 2.09341538 9.65081457 4.94271547 12.8125 10.5625 C16.00196971 17.39420325 16.16848262 24.16284176 13.8125 31.3125 C10.76559945 38.16103793 6.61500284 42.01933254 -0.16796875 45.078125 C-15.28649538 49.99946608 -34.07521971 41.89314806 -48.71533203 37.67407227 C-54.34223053 36.08796237 -59.88422185 35.08436681 -65.69140625 34.359375 C-68 34 -68 34 -69 33 C-69.27898825 29.36173954 -69.23177293 25.71019202 -69.25 22.0625 C-69.270625 21.03447266 -69.29125 20.00644531 -69.3125 18.94726562 C-69.31765625 17.96564453 -69.3228125 16.98402344 -69.328125 15.97265625 C-69.3374707 15.06781494 -69.34681641 14.16297363 -69.35644531 13.23071289 C-69.23881836 12.49457764 -69.12119141 11.75844238 -69 11 C-66.00646532 9.00431021 -64.45647474 8.5419809 -61 7.9296875 C-60.030625 7.75566406 -59.06125 7.58164062 -58.0625 7.40234375 C-56.5465625 7.14130859 -56.5465625 7.14130859 -55 6.875 C-53.989375 6.69324219 -52.97875 6.51148438 -51.9375 6.32421875 C-44.45018797 5 -44.45018797 5 -41 5 C-41 5.66 -41 6.32 -41 7 C-43.31 7 -45.62 7 -48 7 C-48 7.66 -48 8.32 -48 9 C-48.71027344 9.06058594 -49.42054688 9.12117188 -50.15234375 9.18359375 C-51.07144531 9.26738281 -51.99054688 9.35117187 -52.9375 9.4375 C-53.85402344 9.51871094 -54.77054688 9.59992187 -55.71484375 9.68359375 C-57.96159732 9.76044976 -57.96159732 9.76044976 -59 11 C-61.67058851 11.14115161 -64.32432238 11.04247107 -67 11 C-67 14.96 -67 18.92 -67 23 C-66.01 23 -65.02 23 -64 23 C-64 23.66 -64 24.32 -64 25 C-62.700625 25.185625 -62.700625 25.185625 -61.375 25.375 C-58 26 -58 26 -55.25 26.9375 C-47.58237902 29.44422224 -40.41377666 30.17974281 -32.375 30.1875 C-31.57553955 30.18830566 -30.7760791 30.18911133 -29.95239258 30.18994141 C-24.8918103 30.14295364 -20.00977994 29.71650171 -15 29 C-14.505 27.515 -14.505 27.515 -14 26 C-13.0925 25.443125 -12.185 24.88625 -11.25 24.3125 C-6.1160814 20.65951946 -2.77232709 15.0554509 -1 9 C-0.56372912 6.00697886 -0.249522 3.01396308 0 0 Z " fill="#403A3F" transform="translate(276,23)"/>
<path d="M0 0 C2.31 0.33 4.62 0.66 7 1 C7 8.92 7 16.84 7 25 C4.7725 25.391875 2.545 25.78375 0.25 26.1875 C-11.57256327 28.35301901 -23.33194136 31.18526033 -34.8125 34.75 C-43.71636527 37.490842 -55.31573019 39.13152965 -64.12109375 35.234375 C-69.97402822 31.38920391 -74.53395392 25.60205883 -76.609375 18.91015625 C-77.58438272 14.14236851 -77.13600225 9.68600926 -76 5 C-75.67 5 -75.34 5 -75 5 C-74.67 10.61 -74.34 16.22 -74 22 C-64.73964177 21.09050053 -56.48108646 19.7779706 -47.67211914 16.82421875 C-42.91243166 15.23785298 -38.26378198 14.17999015 -33.31640625 13.3984375 C-30.75545019 13.00345873 -30.75545019 13.00345873 -27.375 11.9375 C-19.85455879 9.84848855 -12.19440283 9.86351633 -4.4375 9.9375 C-3.06754883 9.94426758 -3.06754883 9.94426758 -1.66992188 9.95117188 C0.55345738 9.9628126 2.77669121 9.97916149 5 10 C5 7.36 5 4.72 5 2 C3.35 2 1.7 2 0 2 C0 1.34 0 0.68 0 0 Z " fill="#423C40" transform="translate(135,32)"/>
<path d="M0 0 C2.27057377 -0.05398987 4.54151288 -0.09278742 6.8125 -0.125 C8.07707031 -0.14820313 9.34164062 -0.17140625 10.64453125 -0.1953125 C14 0 14 0 17 2 C18.15500508 5.46501524 18.13410172 8.17014747 18.14526367 11.82641602 C18.14862228 12.51614502 18.1519809 13.20587402 18.15544128 13.91650391 C18.16493821 16.19565634 18.16689349 18.47473526 18.16796875 20.75390625 C18.17118126 22.33666515 18.17454532 23.91942374 18.17805481 25.50218201 C18.18404225 28.81843759 18.18589501 32.13466712 18.18530273 35.45092773 C18.18520092 39.70716111 18.19887509 43.9632284 18.21607494 48.21942234 C18.22717202 51.48700229 18.22922268 54.75454172 18.22869301 58.0221386 C18.22987575 59.59187329 18.2343139 61.16160895 18.24202538 62.73132515 C18.25178298 64.92199629 18.24896469 67.11230195 18.24291992 69.30297852 C18.24434494 70.55079605 18.24576996 71.79861359 18.24723816 73.08424377 C18 76 18 76 16 78 C13.22646923 78.18757906 10.55459356 78.25560698 7.78125 78.23046875 C6.96756958 78.23001053 6.15388916 78.22955231 5.31555176 78.2290802 C3.59397932 78.22605711 1.87240964 78.2181691 0.15087891 78.20581055 C-2.48935602 78.18757352 -5.12923996 78.18530072 -7.76953125 78.18554688 C-9.44010721 78.18063094 -11.11068078 78.1748023 -12.78125 78.16796875 C-13.97034973 78.16629951 -13.97034973 78.16629951 -15.18347168 78.16459656 C-20.76786346 78.11606827 -20.76786346 78.11606827 -23 77 C-23.06946198 67.66421561 -23.12279178 58.32851996 -23.15543652 48.99253368 C-23.17110311 44.65760875 -23.19235934 40.3228604 -23.22631836 35.98803711 C-23.25887664 31.80591912 -23.27684553 27.62397115 -23.28463173 23.44173622 C-23.29018162 21.84489578 -23.30101906 20.24806481 -23.31719017 18.65129662 C-23.33891808 16.41730906 -23.34196896 14.18402712 -23.34057617 11.94995117 C-23.34723801 10.67754074 -23.35389984 9.40513031 -23.36076355 8.09416199 C-23 5 -23 5 -20 2 C-20.33 26.42 -20.66 50.84 -21 76 C-12.75 76 -4.5 76 4 76 C4 51.25 4 26.5 4 1 C2.68 0.67 1.36 0.34 0 0 Z " fill="#796F78" transform="translate(177,14)"/>
<path d="M0 0 C4.00125 -0.0825 8.0025 -0.165 12.125 -0.25 C13.37555176 -0.28641602 14.62610352 -0.32283203 15.91455078 -0.36035156 C22.25817012 -0.42371622 26.2398958 -0.37071338 31 4 C35.28319509 8.86200524 36.24418451 13.67073737 36 20 C35.14585846 24.41432442 33.79271274 27.22761322 30.5625 30.375 C26.22979618 33.12256828 23.57100941 34.25075542 18.359375 34.1953125 C17.39483398 34.19031738 16.43029297 34.18532227 15.43652344 34.18017578 C14.2199707 34.16196777 13.00341797 34.14375977 11.75 34.125 C5.93375 34.063125 5.93375 34.063125 0 34 C0 22.78 0 11.56 0 0 Z " fill="#F6A216" transform="translate(333,356)"/>
<path d="M0 0 C0.66 0.33 1.32 0.66 2 1 C3.15500508 4.46501524 3.13410172 7.17014747 3.14526367 10.82641602 C3.14862228 11.51614502 3.1519809 12.20587402 3.15544128 12.91650391 C3.16493821 15.19565634 3.16689349 17.47473526 3.16796875 19.75390625 C3.17118126 21.33666515 3.17454532 22.91942374 3.17805481 24.50218201 C3.18404225 27.81843759 3.18589501 31.13466712 3.18530273 34.45092773 C3.18520092 38.70716111 3.19887509 42.9632284 3.21607494 47.21942234 C3.22717202 50.48700229 3.22922268 53.75454172 3.22869301 57.0221386 C3.22987575 58.59187329 3.2343139 60.16160895 3.24202538 61.73132515 C3.25178298 63.92199629 3.24896469 66.11230195 3.24291992 68.30297852 C3.24434494 69.55079605 3.24576996 70.79861359 3.24723816 72.08424377 C3 75 3 75 1 77 C-1.77353077 77.18757906 -4.44540644 77.25560698 -7.21875 77.23046875 C-8.03243042 77.23001053 -8.84611084 77.22955231 -9.68444824 77.2290802 C-11.40602068 77.22605711 -13.12759036 77.2181691 -14.84912109 77.20581055 C-17.48935602 77.18757352 -20.12923996 77.18530072 -22.76953125 77.18554688 C-24.44010721 77.18063094 -26.11068078 77.1748023 -27.78125 77.16796875 C-28.97034973 77.16629951 -28.97034973 77.16629951 -30.18347168 77.16459656 C-35.76786346 77.11606827 -35.76786346 77.11606827 -38 76 C-38.06946198 66.66421561 -38.12279178 57.32851996 -38.15543652 47.99253368 C-38.17110311 43.65760875 -38.19235934 39.3228604 -38.22631836 34.98803711 C-38.25887664 30.80591912 -38.27684553 26.62397115 -38.28463173 22.44173622 C-38.29018162 20.84489578 -38.30101906 19.24806481 -38.31719017 17.65129662 C-38.33891808 15.41730906 -38.34196896 13.18402712 -38.34057617 10.94995117 C-38.34723801 9.67754074 -38.35389984 8.40513031 -38.36076355 7.09416199 C-38 4 -38 4 -35 1 C-35.33 25.42 -35.66 49.84 -36 75 C-23.79 74.67 -11.58 74.34 1 74 C0.67 49.58 0.34 25.16 0 0 Z " fill="#474448" transform="translate(192,15)"/>
<path d="M0 0 C39 1 39 1 47 3 C47 2.34 47 1.68 47 1 C49.475 1.495 49.475 1.495 52 2 C51.67 3.65 51.34 5.3 51 7 C51.66 7 52.32 7 53 7 C53.495 8.98 53.495 8.98 54 11 C53.01 11 52.02 11 51 11 C51 10.34 51 9.68 51 9 C50.278125 8.731875 49.55625 8.46375 48.8125 8.1875 C46 7 46 7 43.5 5.4375 C38.87457456 2.77788037 34.26749583 2.87204769 29.01953125 2.8671875 C28.36546799 2.86623077 27.71140472 2.86527405 27.03752136 2.86428833 C25.66344099 2.86361111 24.28935734 2.86543326 22.9152832 2.86962891 C20.80868417 2.87500975 18.70229582 2.86965521 16.59570312 2.86328125 C15.25781203 2.86394161 13.91992106 2.86522189 12.58203125 2.8671875 C10.76022339 2.86887939 10.76022339 2.86887939 8.90161133 2.87060547 C6.06066856 2.80011444 6.06066856 2.80011444 4 4 C3.95370528 15.03079354 3.91814537 26.06156406 3.89637566 37.09243488 C3.88592848 42.214246 3.87175223 47.33599075 3.84912109 52.45776367 C3.82742604 57.39848167 3.81543841 62.33913575 3.81024551 67.27989769 C3.80654375 69.16699416 3.79931535 71.05408705 3.78853989 72.94115639 C3.77406931 75.57974494 3.77202019 78.21806775 3.77294922 80.85668945 C3.76575867 81.6407164 3.75856812 82.42474335 3.75115967 83.23252869 C3.76568432 87.03272137 3.83877371 88.75816056 6 92 C5.01 92.495 5.01 92.495 4 93 C4 92.34 4 91.68 4 91 C3.01 90.67 2.02 90.34 1 90 C0.67 60.3 0.34 30.6 0 0 Z " fill="#926113" transform="translate(320,344)"/>
<path d="M0 0 C0.66 0 1.32 0 2 0 C2.391875 0.9075 2.78375 1.815 3.1875 2.75 C5.66790792 7.19762799 8.83176333 9.22117555 13 12 C13 12.66 13 13.32 13 14 C11.9275 14.515625 10.855 15.03125 9.75 15.5625 C5.53003795 17.93355373 4.06854018 20.69743642 2 25 C-2.01412909 23.66195697 -2.73005954 21.47584633 -5 18 C-5.99 17.34 -6.98 16.68 -8 16 C-8 15.34 -8 14.68 -8 14 C-9.32 14 -10.64 14 -12 14 C-11.67 13.01 -11.34 12.02 -11 11 C-10.0925 10.608125 -9.185 10.21625 -8.25 9.8125 C-4.35063355 7.63785333 -3.15385191 5.48462603 -1.078125 1.64453125 C-0.72234375 1.10183594 -0.3665625 0.55914062 0 0 Z " fill="#6A6A6A" transform="translate(472,460)"/>
<path d="M0 0 C0.91644287 0.00523682 1.83288574 0.01047363 2.77709961 0.01586914 C3.76645508 0.0190918 4.75581055 0.02231445 5.77514648 0.02563477 C6.81606445 0.03401367 7.85698242 0.04239258 8.92944336 0.05102539 C10.49662109 0.05779297 10.49662109 0.05779297 12.09545898 0.06469727 C14.68600996 0.07652627 17.27644895 0.0930085 19.86694336 0.11352539 C20.29777222 0.90001465 20.29777222 0.90001465 20.73730469 1.70239258 C22.04818499 4.09118998 23.36376328 6.47736847 24.67944336 8.86352539 C25.13125977 9.68852539 25.58307617 10.51352539 26.04858398 11.36352539 C26.71083984 12.56235352 26.71083984 12.56235352 27.38647461 13.78540039 C27.9913269 14.88513184 27.9913269 14.88513184 28.60839844 16.00708008 C29.8970815 18.16396804 31.32548531 20.13137095 32.86694336 22.11352539 C32.53694336 22.77352539 32.20694336 23.43352539 31.86694336 24.11352539 C28.80444336 24.73852539 28.80444336 24.73852539 25.86694336 25.11352539 C24.82270617 21.71975453 24.86694336 18.64522708 24.86694336 15.11352539 C24.42752813 12.84786196 24.42752813 12.84786196 23.86694336 11.11352539 C22.87694336 11.11352539 21.88694336 11.11352539 20.86694336 11.11352539 C20.53694336 9.13352539 20.20694336 7.15352539 19.86694336 5.11352539 C19.20694336 5.11352539 18.54694336 5.11352539 17.86694336 5.11352539 C17.53694336 6.43352539 17.20694336 7.75352539 16.86694336 9.11352539 C15.74194336 5.36352539 15.74194336 5.36352539 16.86694336 3.11352539 C12.57694336 3.11352539 8.28694336 3.11352539 3.86694336 3.11352539 C3.86694336 4.76352539 3.86694336 6.41352539 3.86694336 8.11352539 C2.36694336 6.73852539 2.36694336 6.73852539 0.86694336 5.11352539 C0.86694336 4.45352539 0.86694336 3.79352539 0.86694336 3.11352539 C-0.12305664 3.77352539 -1.11305664 4.43352539 -2.13305664 5.11352539 C-2.25680664 5.77352539 -2.38055664 6.43352539 -2.50805664 7.11352539 C-2.71430664 7.77352539 -2.92055664 8.43352539 -3.13305664 9.11352539 C-5.67211914 10.23852539 -5.67211914 10.23852539 -8.13305664 11.11352539 C-7.32299138 9.46649234 -6.50993454 7.82093033 -5.69555664 6.17602539 C-5.2430957 5.25950195 -4.79063477 4.34297852 -4.32446289 3.39868164 C-2.62534935 0.13972616 -2.62534935 0.13972616 0 0 Z " fill="#AB6212" transform="translate(376.133056640625,251.886474609375)"/>
<path d="M0 0 C4.0425 -0.0825 8.085 -0.165 12.25 -0.25 C13.51875977 -0.28641602 14.78751953 -0.32283203 16.09472656 -0.36035156 C17.09987305 -0.3703418 18.10501953 -0.38033203 19.140625 -0.390625 C20.16704102 -0.41157227 21.19345703 -0.43251953 22.25097656 -0.45410156 C25.67322977 0.11120847 26.82758037 1.37309927 29 4 C24.25 3.125 24.25 3.125 22 2 C20.4804236 1.84876169 18.95527498 1.75118307 17.4296875 1.68359375 C16.62257324 1.64548584 15.81545898 1.60737793 14.98388672 1.56811523 C13.44498779 1.50346069 13.44498779 1.50346069 11.875 1.4375 C8.61625 1.293125 5.3575 1.14875 2 1 C2 10.9 2 20.8 2 31 C5.320625 31.020625 8.64125 31.04125 12.0625 31.0625 C13.09511963 31.071604 14.12773926 31.08070801 15.19165039 31.09008789 C20.24195446 31.1051896 25.02428544 30.87644348 30 30 C25.86414678 33.1708208 23.79931825 34.12525957 18.5546875 34.09765625 C17.58515137 34.09515869 16.61561523 34.09266113 15.61669922 34.09008789 C14.38193848 34.08098389 13.14717773 34.07187988 11.875 34.0625 C5.996875 34.0315625 5.996875 34.0315625 0 34 C0 22.78 0 11.56 0 0 Z " fill="#E39D29" transform="translate(333,356)"/>
<path d="M0 0 C1.37120511 3.76001269 0.57707958 6.35897404 -0.421875 10.1640625 C-2.17950676 17.89323816 -2.39260622 25.24199461 -2.28125 33.14306641 C-2.24973786 35.39372271 -2.24022265 37.6436746 -2.234375 39.89453125 C-2.19177931 46.68128886 -1.93160437 53.27620616 -1 60 C-1.33 58.68 -1.66 57.36 -2 56 C-2.99 56 -3.98 56 -5 56 C-8.01065786 36.08127252 -6.50557883 19.11944923 0 0 Z " fill="#BD7E1C" transform="translate(298,357)"/>
<path d="M0 0 C0.99 0.33 1.98 0.66 3 1 C2.53207031 1.41765625 2.06414062 1.8353125 1.58203125 2.265625 C-0.3169985 4.11993302 -0.3169985 4.11993302 -1.3125 7.75 C-3.12178757 12.91123087 -6.20342516 17.15583785 -10.80078125 20.1875 C-13.70356459 21.2599315 -16.16498493 21.19206555 -19.25 21.125 C-20.32765625 21.10695313 -21.4053125 21.08890625 -22.515625 21.0703125 C-23.33546875 21.04710937 -24.1553125 21.02390625 -25 21 C-25 20.67 -25 20.34 -25 20 C-22.03 20 -19.06 20 -16 20 C-15.731875 18.741875 -15.46375 17.48375 -15.1875 16.1875 C-14.35756369 12.85022091 -13.6008027 11.28870638 -11 9 C-9.95377125 7.02379014 -8.94560065 5.0262871 -8 3 C-4.125 4.875 -4.125 4.875 -3 6 C-2.01 4.02 -1.02 2.04 0 0 Z " fill="#EE8509" transform="translate(439,405)"/>
<path d="M0 0 C1.32 0.66 2.64 1.32 4 2 C3.01 3.485 3.01 3.485 2 5 C1.34 5 0.68 5 0 5 C-0.12375 5.556875 -0.2475 6.11375 -0.375 6.6875 C-1 9 -1 9 -2 11.375 C-4.13454944 16.97819229 -4.15941257 22.63529082 -4.16796875 28.546875 C-4.17129715 29.35811829 -4.17462555 30.16936157 -4.17805481 31.00518799 C-4.18309874 32.71634356 -4.18546392 34.42750888 -4.18530273 36.13867188 C-4.18748152 38.72803376 -4.20564295 41.31696375 -4.22460938 43.90625 C-4.25190828 52.19911746 -4.10395932 59.91680453 -2 68 C-2.99 68 -3.98 68 -5 68 C-6.66886715 61.65366428 -7.30780239 55.729986 -7.30078125 49.1796875 C-7.30506638 48.27678986 -7.3093515 47.37389221 -7.31376648 46.44363403 C-7.31947001 44.54950799 -7.32003967 42.65536007 -7.31567383 40.76123047 C-7.31250066 37.87559678 -7.33606828 34.99097713 -7.36132812 32.10546875 C-7.36360033 30.25520961 -7.36430498 28.40494775 -7.36328125 26.5546875 C-7.372491 25.70035126 -7.38170074 24.84601501 -7.39118958 23.96578979 C-7.34930891 18.51087517 -6.34581519 14.91163468 -4 10 C-3.74730583 6.70714899 -3.74730583 6.70714899 -4 4 C-2.68 3.34 -1.36 2.68 0 2 C0 1.34 0 0.68 0 0 Z " fill="#BC8526" transform="translate(396,352)"/>
<path d="M0 0 C2.50871275 2.50871275 2.96839057 4.54850182 4 7.9375 C4.33 8.99839844 4.66 10.05929687 5 11.15234375 C7.24581374 19.79346302 8.38963318 28.13395104 8.375 37.0625 C8.37411377 38.05258057 8.37322754 39.04266113 8.37231445 40.06274414 C8.17756488 52.36755578 5.45026556 63.58742787 1 75 C0.67 75 0.34 75 0 75 C0.33 71.04 0.66 67.08 1 63 C1.66 63 2.32 63 3 63 C6.01587907 46.73579502 5.39257866 30.41253421 4 14 C3.34 14 2.68 14 2 14 C1.66179834 12.4176994 1.32964061 10.83410625 1 9.25 C0.814375 8.36828125 0.62875 7.4865625 0.4375 6.578125 C0 4 0 4 0 0 Z " fill="#A86013" transform="translate(470,356)"/>
<path d="M0 0 C0.495 0.99 0.495 0.99 1 2 C-1.66178221 3.3308911 -3.68739396 3.11268993 -6.6640625 3.09765625 C-7.78554688 3.09443359 -8.90703125 3.09121094 -10.0625 3.08789062 C-11.238125 3.07951172 -12.41375 3.07113281 -13.625 3.0625 C-14.80835938 3.05798828 -15.99171875 3.05347656 -17.2109375 3.04882812 C-20.14067507 3.03701467 -23.07031272 3.02054258 -26 3 C-25.98952637 3.94319092 -25.97905273 4.88638184 -25.96826172 5.8581543 C-25.93409359 9.37120018 -25.9090592 12.8840684 -25.89013672 16.3972168 C-25.88010455 17.91514886 -25.86647562 19.43306173 -25.84912109 20.95092773 C-25.82474965 23.1379064 -25.81348905 25.32462864 -25.8046875 27.51171875 C-25.79421387 28.82615967 -25.78374023 30.14060059 -25.77294922 31.49487305 C-25.98794024 34.81382589 -26.55774177 37.03314007 -28 40 C-30.31 39.67 -32.62 39.34 -35 39 C-34.01 38.34 -33.02 37.68 -32 37 C-30.2337142 35.88315356 -30.2337142 35.88315356 -29 34 C-28.50738558 30.62519914 -28.50738558 30.62519914 -28.5234375 26.7421875 C-28.50785797 26.03853058 -28.49227844 25.33487366 -28.47622681 24.6098938 C-28.42873087 22.36494014 -28.40094609 20.12029743 -28.375 17.875 C-28.33854233 15.62277936 -28.29797571 13.37073632 -28.25234985 11.11868286 C-28.21265546 9.08040364 -28.1849146 7.04190221 -28.15771484 5.00341797 C-28 2 -28 2 -27 1 C-25.00217874 0.84174742 -22.99911166 0.74880829 -20.99609375 0.68359375 C-19.17368164 0.62075195 -19.17368164 0.62075195 -17.31445312 0.55664062 C-16.03505859 0.51732422 -14.75566406 0.47800781 -13.4375 0.4375 C-12.15423828 0.39431641 -10.87097656 0.35113281 -9.54882812 0.30664062 C-6.36600147 0.200152 -3.18309326 0.09814038 0 0 Z " fill="#A4701F" transform="translate(361,398)"/>
<path d="M0 0 C0.99 0 1.98 0 3 0 C3.08097324 2.27024968 3.13917704 4.54132075 3.1875 6.8125 C3.23970703 8.70935547 3.23970703 8.70935547 3.29296875 10.64453125 C3 14 3 14 1.53125 15.71875 C1.0259375 16.1415625 0.520625 16.564375 0 17 C-0.73041853 20.61023099 -0.73041853 20.61023099 -1 24 C-1.56589844 24.19335938 -2.13179688 24.38671875 -2.71484375 24.5859375 C-3.81505859 24.97652344 -3.81505859 24.97652344 -4.9375 25.375 C-5.66839844 25.63023437 -6.39929688 25.88546875 -7.15234375 26.1484375 C-9.18682116 26.85271413 -9.18682116 26.85271413 -10 29 C-14.89281655 31.07944704 -19.75165143 31.63949043 -25 32 C-26.33417969 32.09861328 -26.33417969 32.09861328 -27.6953125 32.19921875 C-29.02175781 32.25529297 -29.02175781 32.25529297 -30.375 32.3125 C-31.18710937 32.34988281 -31.99921875 32.38726562 -32.8359375 32.42578125 C-35 32 -35 32 -36.7890625 29.98046875 C-37.18867188 29.32691406 -37.58828125 28.67335938 -38 28 C-37.05125 28.165 -36.1025 28.33 -35.125 28.5 C-24.58055406 29.92148466 -16.69474472 28.76068047 -7.6875 22.8125 C-2.53463664 17.41996858 0.70298806 11.57380436 1 4 C0.65340705 1.67841935 0.65340705 1.67841935 0 0 Z " fill="#AE6210" transform="translate(446,406)"/>
<path d="M0 0 C-1.80219418 8.53166393 -7.62772661 15.38698728 -13 22 C-13.763125 23.010625 -14.52625 24.02125 -15.3125 25.0625 C-15.869375 25.701875 -16.42625 26.34125 -17 27 C-17.66 27 -18.32 27 -19 27 C-19 27.66 -19 28.32 -19 29 C-20.53125 30.5078125 -20.53125 30.5078125 -22.5 32.125 C-23.1496875 32.66382813 -23.799375 33.20265625 -24.46875 33.7578125 C-24.9740625 34.16773438 -25.479375 34.57765625 -26 35 C-26.66 34.67 -27.32 34.34 -28 34 C-27.67 33.34 -27.34 32.68 -27 32 C-26.34 32 -25.68 32 -25 32 C-24.67 30.68 -24.34 29.36 -24 28 C-22.68 28 -21.36 28 -20 28 C-20.33 25.69 -20.66 23.38 -21 21 C-20.34 21.33 -19.68 21.66 -19 22 C-18.3503125 20.7934375 -18.3503125 20.7934375 -17.6875 19.5625 C-16 17 -16 17 -13 16 C-12.34 15.34 -11.68 14.68 -11 14 C-10.67 14.33 -10.34 14.66 -10 15 C-7.47148345 10.84018245 -5.92919345 7.77870918 -5 3 C-2.62068966 0 -2.62068966 0 0 0 Z " fill="#CD720D" transform="translate(469,432)"/>
<path d="M0 0 C0.5625 1.9375 0.5625 1.9375 1 4 C0.67 4.33 0.34 4.66 0 5 C-0.15143562 6.44084683 -0.23795397 7.88860718 -0.29711914 9.33618164 C-0.33708511 10.2570607 -0.37705109 11.17793976 -0.41822815 12.12672424 C-0.45681442 13.12775681 -0.4954007 14.12878937 -0.53515625 15.16015625 C-0.57813339 16.17975937 -0.62111053 17.19936249 -0.66539001 18.24986267 C-0.80222188 21.52057455 -0.93242706 24.79151301 -1.0625 28.0625 C-1.15386197 30.27410655 -1.24565312 32.48569542 -1.33789062 34.69726562 C-1.5635823 40.13131467 -1.78382761 45.5655644 -2 51 C-5.08113095 47.91886905 -4.32525124 44.25315863 -4.3359375 40.1171875 C-4.3425943 39.22895294 -4.3492511 38.34071838 -4.35610962 37.42556763 C-4.36624993 35.54089429 -4.37092621 33.65618496 -4.37060547 31.77148438 C-4.37495155 28.90693528 -4.41117993 26.04396098 -4.44921875 23.1796875 C-4.4550923 21.34635941 -4.45905809 19.51302403 -4.4609375 17.6796875 C-4.47530853 16.83042694 -4.48967957 15.98116638 -4.50448608 15.10617065 C-4.45874186 9.05632875 -3.03950961 5.2350038 0 0 Z " fill="#784F0E" transform="translate(405,362)"/>
<path d="M0 0 C0 0.66 0 1.32 0 2 C0.598125 2.185625 1.19625 2.37125 1.8125 2.5625 C5.10152353 4.72385832 5.72169307 7.34769447 7 11 C7.39764263 12.98821313 7.75455166 14.98732362 8 17 C5.69 15.02 3.38 13.04 1 11 C1.66 9.35 2.32 7.7 3 6 C2.01 6 1.02 6 0 6 C0 5.01 0 4.02 0 3 C-1.32 3 -2.64 3 -4 3 C-4 2.01 -4 1.02 -4 0 C-5.91635217 -0.05423638 -7.83314925 -0.09289963 -9.75 -0.125 C-10.81734375 -0.14820313 -11.8846875 -0.17140625 -12.984375 -0.1953125 C-15.97769064 -0.00144491 -17.46832253 0.4898766 -20 2 C-21.66140763 2.67966676 -23.32700041 3.34938905 -25 4 C-17.41255981 -4.23779221 -9.71467685 -4.85733842 0 0 Z " fill="#A17220" transform="translate(431,358)"/>
<path d="M0 0 C4.50513431 4.23209586 8.514292 8.88695859 12 14 C12 14.66 12 15.32 12 16 C12.66 16 13.32 16 14 16 C13 18 13 18 11 19 C10.34 18.34 9.68 17.68 9 17 C8.34 16.67 7.68 16.34 7 16 C7 15.01 7 14.02 7 13 C6.01 13.495 6.01 13.495 5 14 C5 15.65 5 17.3 5 19 C4.01 19 3.02 19 2 19 C1.83147753 17.39602723 1.66525114 15.7918131 1.5 14.1875 C1.4071875 13.29417969 1.314375 12.40085937 1.21875 11.48046875 C1 9 1 9 1 6 C0.34 5.67 -0.32 5.34 -1 5 C-0.67 3.35 -0.34 1.7 0 0 Z " fill="#E6800C" transform="translate(421,293)"/>
<path d="M0 0 C4.55320682 -0.04979112 9.10625181 -0.08590298 13.65966797 -0.10986328 C15.20559453 -0.11986197 16.75150246 -0.13346538 18.29736328 -0.15087891 C20.53162255 -0.17539951 22.76562975 -0.18654451 25 -0.1953125 C25.68054443 -0.20563507 26.36108887 -0.21595764 27.06225586 -0.22659302 C32.04016407 -0.22773223 36.24801892 0.65886472 41 2 C41 1.34 41 0.68 41 0 C43.475 0.495 43.475 0.495 46 1 C45.67 2.65 45.34 4.3 45 6 C45.66 6 46.32 6 47 6 C47.495 7.98 47.495 7.98 48 10 C47.01 10 46.02 10 45 10 C45 9.34 45 8.68 45 8 C44.278125 7.731875 43.55625 7.46375 42.8125 7.1875 C40 6 40 6 37.5 4.4375 C32.90274766 1.79407991 28.16697607 1.83901631 22.94921875 1.68359375 C22.29041214 1.66281265 21.63160553 1.64203156 20.95283508 1.62062073 C18.86448815 1.55564511 16.77602388 1.49648425 14.6875 1.4375 C13.2649622 1.39426521 11.84243594 1.3506494 10.41992188 1.30664062 C6.94673703 1.20001784 3.47342274 1.09860652 0 1 C0 0.67 0 0.34 0 0 Z " fill="#EFA31F" transform="translate(326,345)"/>
<path d="M0 0 C9.05390293 -0.1610378 9.05390293 -0.1610378 12.9375 0.5 C17.58985367 1.25956795 22.29577615 1.27247634 27 1 C27.33 0.67 27.66 0.34 28 0 C29.41570123 -0.08651611 30.835595 -0.10704904 32.25390625 -0.09765625 C33.53491211 -0.09282227 33.53491211 -0.09282227 34.84179688 -0.08789062 C35.73962891 -0.07951172 36.63746094 -0.07113281 37.5625 -0.0625 C38.46419922 -0.05798828 39.36589844 -0.05347656 40.29492188 -0.04882812 C42.53001314 -0.03700225 44.76497437 -0.0205222 47 0 C47 0.33 47 0.66 47 1 C38.91600856 2.77999862 31.20176027 3.30796091 22.9375 3.25 C21.83083984 3.25773437 20.72417969 3.26546875 19.58398438 3.2734375 C12.82169139 3.25746043 6.56774341 2.62504684 0 1 C0 0.67 0 0.34 0 0 Z " fill="#9D570F" transform="translate(362,483)"/>
<path d="M0 0 C0.33 0 0.66 0 1 0 C1 3.63 1 7.26 1 11 C4.52105163 10.85843505 8.04177889 10.71189095 11.5625 10.5625 C13.0484668 10.50352539 13.0484668 10.50352539 14.56445312 10.44335938 C19.77598637 10.21827654 24.85353238 9.85894761 30 9 C25.86414678 12.1708208 23.79931825 13.12525957 18.5546875 13.09765625 C16.94013672 13.09282227 16.94013672 13.09282227 15.29296875 13.08789062 C14.16503906 13.07951172 13.03710938 13.07113281 11.875 13.0625 C10.73933594 13.05798828 9.60367187 13.05347656 8.43359375 13.04882812 C5.62237353 13.03701628 2.81118028 13.01908041 0 13 C0 8.71 0 4.42 0 0 Z " fill="#93651B" transform="translate(333,377)"/>
<path d="M0 0 C2.64534244 3.39876276 4.96952442 6.97623907 7.25 10.625 C7.62640625 11.21023438 8.0028125 11.79546875 8.390625 12.3984375 C9.32394098 13.89448811 10.16977396 15.44437444 11 17 C10.67 17.66 10.34 18.32 10 19 C6.9375 19.625 6.9375 19.625 4 20 C2.95576281 16.60622914 3 13.53170169 3 10 C2.56058477 7.73433657 2.56058477 7.73433657 2 6 C1.01 6 0.02 6 -1 6 C-0.67 4.02 -0.34 2.04 0 0 Z " fill="#DC7E0C" transform="translate(398,257)"/>
<path d="M0 0 C0.66 0 1.32 0 2 0 C2 0.66 2 1.32 2 2 C2.66 2 3.32 2 4 2 C4.19522373 4.58296017 4.38144403 7.16604079 4.5625 9.75 C4.61857422 10.47960937 4.67464844 11.20921875 4.73242188 11.9609375 C4.97709908 15.54953651 4.99666259 18.55027225 4 22 C3.34 22 2.68 22 2 22 C1.67 23.98 1.34 25.96 1 28 C0.34 28 -0.32 28 -1 28 C-0.77183594 27.26136719 -0.54367187 26.52273438 -0.30859375 25.76171875 C2.29681446 16.56684764 1.91990647 9.25196308 0 0 Z " fill="#AC7622" transform="translate(376,360)"/>
<path d="M0 0 C-0.33 0.99 -0.66 1.98 -1 3 C-9.91 2.67 -18.82 2.34 -28 2 C-28 1.34 -28 0.68 -28 0 C-23.89621612 -0.19660714 -19.79196562 -0.3807276 -15.6875 -0.5625 C-14.52025391 -0.61857422 -13.35300781 -0.67464844 -12.15039062 -0.73242188 C-11.03212891 -0.78076172 -9.91386719 -0.82910156 -8.76171875 -0.87890625 C-7.2142395 -0.94960327 -7.2142395 -0.94960327 -5.63549805 -1.02172852 C-3 -1 -3 -1 0 0 Z " fill="#322F31" transform="translate(116,178)"/>
<path d="M0 0 C0.66 0 1.32 0 2 0 C2.33 1.98 2.66 3.96 3 6 C3.99 6 4.98 6 6 6 C5.835 6.928125 5.67 7.85625 5.5 8.8125 C4.76299718 13.85733621 4.91723185 18.91435711 5 24 C4.01 23.67 3.02 23.34 2 23 C1.93941406 22.01 1.87882812 21.02 1.81640625 20 C1.39539534 13.30533362 0.94925871 6.64481097 0 0 Z " fill="#514D52" transform="translate(345,215)"/>
<path d="M0 0 C1 2 1 2 0.1875 4.5625 C-1 7 -1 7 -3 8 C-4.13350534 10.01669827 -4.13350534 10.01669827 -5 12 C-5.66 12 -6.32 12 -7 12 C-7 12.99 -7 13.98 -7 15 C-8.98 15.66 -10.96 16.32 -13 17 C-11.2703384 12.79046213 -8.31793255 9.64856424 -5.375 6.25 C-4.859375 5.64800781 -4.34375 5.04601562 -3.8125 4.42578125 C-2.54530865 2.94739134 -1.27314225 1.47326829 0 0 Z " fill="#BC8221" transform="translate(344,298)"/>
<path d="M0 0 C0.79148437 0.19078125 1.58296875 0.3815625 2.3984375 0.578125 C3.19507813 0.75859375 3.99171875 0.9390625 4.8125 1.125 C6.7734375 1.828125 6.7734375 1.828125 7.7734375 3.828125 C5.4634375 3.828125 3.1534375 3.828125 0.7734375 3.828125 C-0.2165625 5.808125 -1.2065625 7.788125 -2.2265625 9.828125 C-2.5565625 9.168125 -2.8865625 8.508125 -3.2265625 7.828125 C-4.2165625 7.498125 -5.2065625 7.168125 -6.2265625 6.828125 C-5.9140625 4.453125 -5.9140625 4.453125 -5.2265625 1.828125 C-2.2265625 -0.171875 -2.2265625 -0.171875 0 0 Z " fill="#EC8008" transform="translate(438.2265625,402.171875)"/>
<path d="M0 0 C2.46897429 1.7521753 3.80208451 3.26302522 4.59375 6.2109375 C5.42078303 12.31970417 4.71286308 16.47379743 2 22 C1.34 22.33 0.68 22.66 0 23 C0 20.36 0 17.72 0 15 C0.66 14.67 1.32 14.34 2 14 C2.32169036 7.70255932 2.32169036 7.70255932 0 2 C0 1.34 0 0.68 0 0 Z " fill="#92651B" transform="translate(364,362)"/>
<path d="M0 0 C11.52164009 -0.3690205 11.52164009 -0.3690205 17 2 C17 2.66 17 3.32 17 4 C19.97 4.66 22.94 5.32 26 6 C25.67 6.99 25.34 7.98 25 9 C20 7 20 7 15 5 C15 4.34 15 3.68 15 3 C14.41992188 2.93941406 13.83984375 2.87882812 13.2421875 2.81640625 C8.79907137 2.33983439 4.40094577 1.78991334 0 1 C0 0.67 0 0.34 0 0 Z " fill="#4D454C" transform="translate(309,106)"/>
<path d="M0 0 C-1.54894806 7.45852162 -6.43884638 14.04516055 -11 20 C-11.33 20 -11.66 20 -12 20 C-12 18.02 -12 16.04 -12 14 C-11.01 14.495 -11.01 14.495 -10 15 C-7.47148345 10.84018245 -5.92919345 7.77870918 -5 3 C-2.62068966 0 -2.62068966 0 0 0 Z " fill="#985310" transform="translate(469,432)"/>
<path d="M0 0 C4.08403601 -0.10778981 8.1652368 -0.18722647 12.25 -0.25 C13.40886719 -0.28351563 14.56773437 -0.31703125 15.76171875 -0.3515625 C16.87675781 -0.36445313 17.99179687 -0.37734375 19.140625 -0.390625 C20.16704102 -0.41157227 21.19345703 -0.43251953 22.25097656 -0.45410156 C25.67322977 0.11120847 26.82758037 1.37309927 29 4 C24.25 3.125 24.25 3.125 22 2 C20.40737934 1.84824451 18.80935144 1.75099675 17.2109375 1.68359375 C16.26992188 1.64169922 15.32890625 1.59980469 14.359375 1.55664062 C13.37453125 1.51732422 12.3896875 1.47800781 11.375 1.4375 C10.38242187 1.39431641 9.38984375 1.35113281 8.3671875 1.30664062 C5.91162967 1.20039053 3.45583349 1.09967545 1 1 C1 4.63 1 8.26 1 12 C0.67 12 0.34 12 0 12 C0 8.04 0 4.08 0 0 Z " fill="#A37325" transform="translate(333,356)"/>
<path d="M0 0 C4.58982793 -0.04964866 9.17949754 -0.08583672 13.76953125 -0.10986328 C15.32912929 -0.11988557 16.8887087 -0.13350705 18.44824219 -0.15087891 C20.69731254 -0.1752941 22.94613322 -0.1865209 25.1953125 -0.1953125 C25.8861795 -0.20563507 26.57704651 -0.21595764 27.28884888 -0.22659302 C31.57260162 -0.22757315 35.01712278 0.43394351 39 2 C38.67 2.66 38.34 3.32 38 4 C36.9996875 3.68289063 35.999375 3.36578125 34.96875 3.0390625 C28.28035765 1.36696441 21.35501125 1.52955169 14.5 1.375 C13.09112362 1.33674703 11.6822688 1.29769125 10.2734375 1.2578125 C6.84908673 1.16399467 3.42473492 1.07829784 0 1 C0 0.67 0 0.34 0 0 Z " fill="#A06C18" transform="translate(326,345)"/>
<path d="M0 0 C1.1725131 0.95117134 2.33787015 1.91117009 3.5 2.875 C4.47453125 3.67550781 4.47453125 3.67550781 5.46875 4.4921875 C5.9740625 4.98976563 6.479375 5.48734375 7 6 C7 6.66 7 7.32 7 8 C7.66 8 8.32 8 9 8 C10.38938077 9.96147874 11.7260411 11.96166576 13 14 C12.01 14.495 12.01 14.495 11 15 C10.34 14.01 9.68 13.02 9 12 C8.01 11.67 7.02 11.34 6 11 C6 10.34 6 9.68 6 9 C5.34 9 4.68 9 4 9 C4 8.01 4 7.02 4 6 C2.35 6 0.7 6 -1 6 C-0.67 4.02 -0.34 2.04 0 0 Z " fill="#AF6612" transform="translate(435,311)"/>
<path d="M0 0 C3.25516428 3.16474305 6.32008793 6.32752791 9 10 C9 10.66 9 11.32 9 12 C9.66 12 10.32 12 11 12 C10 14 10 14 8 15 C7.34 14.34 6.68 13.68 6 13 C5.34 12.67 4.68 12.34 4 12 C4 11.01 4 10.02 4 9 C3.34 9 2.68 9 2 9 C2 7.68 2 6.36 2 5 C1.34 4.67 0.68 4.34 0 4 C0 2.68 0 1.36 0 0 Z " fill="#AE6710" transform="translate(424,297)"/>
<path d="M0 0 C1.32 0.33 2.64 0.66 4 1 C4 1.99 4 2.98 4 4 C5.65 3.67 7.3 3.34 9 3 C11 6 11 6 11 10 C6.56156561 8.60506348 4.0565036 6.48101799 1 3 C0.67 2.01 0.34 1.02 0 0 Z " fill="#BB7E1E" transform="translate(403,415)"/>
<path d="M0 0 C0.99 0.33 1.98 0.66 3 1 C2.5359375 1.4125 2.071875 1.825 1.59375 2.25 C-0.14117913 4.15502022 -0.72509208 5.5645751 -1.5 8 C-2.59572535 11.44370824 -3.2384445 12.2384445 -6 15 C-6.33 11.7 -6.66 8.4 -7 5 C-5.68 5.33 -4.36 5.66 -3 6 C-2.01 4.02 -1.02 2.04 0 0 Z " fill="#AB5C0B" transform="translate(439,405)"/>
<path d="M0 0 C1.32 0.66 2.64 1.32 4 2 C3.01 3.485 3.01 3.485 2 5 C1.34 5 0.68 5 0 5 C-0.12375 5.556875 -0.2475 6.11375 -0.375 6.6875 C-1 9 -1 9 -2 11.375 C-3.09185475 14.24111871 -3.57709822 16.9692039 -4 20 C-4.33 20 -4.66 20 -5 20 C-5.08350072 15.15695807 -4.90971854 10.77602231 -4 6 C-4 5.34 -4 4.68 -4 4 C-2.68 3.34 -1.36 2.68 0 2 C0 1.34 0 0.68 0 0 Z " fill="#AB7716" transform="translate(396,352)"/>
<path d="M0 0 C0.33 0 0.66 0 1 0 C1 1.98 1 3.96 1 6 C0.01 6 -0.98 6 -2 6 C-2.103125 6.515625 -2.20625 7.03125 -2.3125 7.5625 C-3.2499528 10.8861963 -4.47923874 13.89998666 -6 17 C-6.99 17.33 -7.98 17.66 -9 18 C-7.6510689 13.48548686 -5.83381706 9.67722719 -3.4375 5.625 C-2.81746094 4.56539063 -2.19742187 3.50578125 -1.55859375 2.4140625 C-0.78708984 1.21910156 -0.78708984 1.21910156 0 0 Z " fill="#A56F19" transform="translate(308,339)"/>
<path d="M0 0 C0.33 0 0.66 0 1 0 C1.3704698 7.53288591 1.3704698 7.53288591 -0.4375 9.8125 C-0.953125 10.204375 -1.46875 10.59625 -2 11 C-2.33 11.99 -2.66 12.98 -3 14 C-3.99 14 -4.98 14 -6 14 C-4.7023817 8.70139194 -2.84984298 4.65474354 0 0 Z " fill="#F5A220" transform="translate(363,270)"/>
<path d="M0 0 C1.45708597 3.91837983 0.60354951 7.11666453 -0.25 11.125 C-0.50265625 12.36507813 -0.7553125 13.60515625 -1.015625 14.8828125 C-2 18 -2 18 -5 20 C-4.45484328 12.91296261 -2.39081395 6.67203894 0 0 Z " fill="#9A6719" transform="translate(298,357)"/>
<path d="M0 0 C7 7 7 7 7 11 C7.66 11 8.32 11 9 11 C9 11.66 9 12.32 9 13 C6.03 12.505 6.03 12.505 3 12 C2.01 8.04 1.02 4.08 0 0 Z " fill="#AA6412" transform="translate(409,276)"/>
<path d="M0 0 C1.98 0 3.96 0 6 0 C0.19413408 5.95865187 0.19413408 5.95865187 -3.8203125 6.09765625 C-4.91085937 6.08605469 -6.00140625 6.07445312 -7.125 6.0625 C-8.22070312 6.05347656 -9.31640625 6.04445313 -10.4453125 6.03515625 C-11.70988281 6.01775391 -11.70988281 6.01775391 -13 6 C-13 5.67 -13 5.34 -13 5 C-10.03 5 -7.06 5 -4 5 C-4 4.34 -4 3.68 -4 3 C-2.35 2.67 -0.7 2.34 1 2 C0.67 1.34 0.34 0.68 0 0 Z " fill="#93550F" transform="translate(427,420)"/>
<path d="M0 0 C0.99 0.33 1.98 0.66 3 1 C4.3069722 4.24854361 4.16623198 7.66256629 4.1875 11.125 C4.20167969 12.17945313 4.21585937 13.23390625 4.23046875 14.3203125 C4 17 4 17 2 19 C-1.125 19.125 -1.125 19.125 -4 19 C-4 18.34 -4 17.68 -4 17 C-2.02 16.67 -0.04 16.34 2 16 C2.20413361 10.26157749 2.27141454 5.39460953 0 0 Z " fill="#844A0D" transform="translate(444,358)"/>
<path d="M0 0 C4.34464536 0.60825035 8.67551867 1.26167392 13 2 C13 2.66 13 3.32 13 4 C14.32 4.33 15.64 4.66 17 5 C12.92320841 6.6852084 10.16924407 5.16939007 6.25 3.5625 C5.07953125 3.08941406 3.9090625 2.61632812 2.703125 2.12890625 C1.81109375 1.75636719 0.9190625 1.38382812 0 1 C0 0.67 0 0.34 0 0 Z " fill="#955610" transform="translate(345,477)"/>
<path d="M0 0 C2.97 0.495 2.97 0.495 6 1 C6 1.99 6 2.98 6 4 C6.94875 4.061875 7.8975 4.12375 8.875 4.1875 C9.90625 4.455625 10.9375 4.72375 12 5 C13.375 7.5625 13.375 7.5625 14 10 C10.19136032 8.65378455 7.34590149 6.94641263 4.1875 4.4375 C3.39730469 3.81746094 2.60710937 3.19742187 1.79296875 2.55859375 C0.90544922 1.78708984 0.90544922 1.78708984 0 1 C0 0.67 0 0.34 0 0 Z " fill="#9B590F" transform="translate(325,464)"/>
<path d="M0 0 C0.33 1.32 0.66 2.64 1 4 C0.01 4 -0.98 4 -2 4 C-1.67 5.98 -1.34 7.96 -1 10 C-1.99 9.34 -2.98 8.68 -4 8 C-4.5775 8.350625 -5.155 8.70125 -5.75 9.0625 C-8.35801776 10.14917407 -9.39417629 9.93065133 -12 9 C-5.25 5 -5.25 5 -3 5 C-2.690625 4.360625 -2.38125 3.72125 -2.0625 3.0625 C-1 1 -1 1 0 0 Z " fill="#AB751D" transform="translate(374,388)"/>
<path d="M0 0 C0.556875 0.70125 1.11375 1.4025 1.6875 2.125 C4.09124732 5.11344261 6.53810432 8.05940238 9 11 C6.03 10.505 6.03 10.505 3 10 C3 9.34 3 8.68 3 8 C2.34 8 1.68 8 1 8 C0.67 5.36 0.34 2.72 0 0 Z " fill="#B4781D" transform="translate(394,420)"/>
<path d="M0 0 C0.78503906 0.13277344 1.57007812 0.26554687 2.37890625 0.40234375 C7.91187987 1.33242643 13.44073841 2.24191887 19 3 C19 3.33 19 3.66 19 4 C16.95863605 4.05451714 14.91684144 4.09302485 12.875 4.125 C11.16957031 4.15980469 11.16957031 4.15980469 9.4296875 4.1953125 C5.94242233 3.99672109 3.2446138 3.2524801 0 2 C0 1.34 0 0.68 0 0 Z " fill="#3D383D" transform="translate(115,28)"/>
<path d="M0 0 C-11.52164009 5.55580866 -11.52164009 5.55580866 -17 6 C-14.77644774 3.4429149 -13.24981807 2.75829088 -10 2 C-9.67 1.34 -9.34 0.68 -9 0 C-2.57142857 -1.28571429 -2.57142857 -1.28571429 0 0 Z " fill="#9D580D" transform="translate(426,477)"/>
<path d="M0 0 C1.65 0 3.3 0 5 0 C4 3 4 3 1 5 C0.01 5 -0.98 5 -2 5 C-2 5.66 -2 6.32 -2 7 C-3.65 7.66 -5.3 8.32 -7 9 C-7 8.01 -7 7.02 -7 6 C-5.68 6 -4.36 6 -3 6 C-3 5.34 -3 4.68 -3 4 C-2.34 4 -1.68 4 -1 4 C-0.67 2.68 -0.34 1.36 0 0 Z " fill="#9B590D" transform="translate(435,467)"/>
<path d="M0 0 C2.91227269 3.28804981 4.49701212 5.59885603 5 10 C5.66 10 6.32 10 7 10 C7.33 10.99 7.66 11.98 8 13 C7.01 13 6.02 13 5 13 C3.359375 10.91796875 3.359375 10.91796875 1.75 8.1875 C1.20859375 7.29417969 0.6671875 6.40085937 0.109375 5.48046875 C-1 3 -1 3 0 0 Z " fill="#B17821" transform="translate(302,432)"/>
<path d="M0 0 C0.33 0 0.66 0 1 0 C1.16682272 4.92127034 1.24828052 8.50343896 -1 13 C-3.31 12.67 -5.62 12.34 -8 12 C-7.01 11.34 -6.02 10.68 -5 10 C-4.484375 9.46375 -3.96875 8.9275 -3.4375 8.375 C-2 7 -2 7 0 7 C0 4.69 0 2.38 0 0 Z " fill="#CE8C24" transform="translate(334,425)"/>
<path d="M0 0 C1.14926266 0.95421808 2.29430541 1.91352045 3.4375 2.875 C4.07558594 3.40867187 4.71367187 3.94234375 5.37109375 4.4921875 C7 6 7 6 8 8 C2.25 7.25 2.25 7.25 0 5 C-0.125 2.375 -0.125 2.375 0 0 Z " fill="#BD6B12" transform="translate(448,325)"/>
<path d="M0 0 C2.475 0.495 2.475 0.495 5 1 C5.33 2.65 5.66 4.3 6 6 C6.99 6.33 7.98 6.66 9 7 C8.67 7.99 8.34 8.98 8 10 C4.71211176 6.88983545 2.16264012 3.98381075 0 0 Z " fill="#AA7320" transform="translate(310,448)"/>
<path d="M0 0 C0 1.65 0 3.3 0 5 C-0.66 5 -1.32 5 -2 5 C-2.66 6.32 -3.32 7.64 -4 9 C-4.66 7.02 -5.32 5.04 -6 3 C-1.125 0 -1.125 0 0 0 Z " fill="#EB810C" transform="translate(444,459)"/>
<path d="M0 0 C0.99 0.33 1.98 0.66 3 1 C2.6875 3.375 2.6875 3.375 2 6 C1.01 6.66 0.02 7.32 -1 8 C-1 6.68 -1 5.36 -1 4 C-1.66 3.67 -2.32 3.34 -3 3 C-2.01 2.01 -1.02 1.02 0 0 Z " fill="#CE730B" transform="translate(454,448)"/>
<path d="M0 0 C0.5625 1.9375 0.5625 1.9375 1 4 C0.67 4.33 0.34 4.66 0 5 C-0.23701239 7.85877909 -0.42219182 10.69883297 -0.5625 13.5625 C-0.60568359 14.36880859 -0.64886719 15.17511719 -0.69335938 16.00585938 C-0.79975262 18.00368805 -0.90040888 20.0018207 -1 22 C-1.33 22 -1.66 22 -2 22 C-2.05807043 18.89591193 -2.09361914 15.7919636 -2.125 12.6875 C-2.14175781 11.80642578 -2.15851563 10.92535156 -2.17578125 10.01757812 C-2.18222656 9.17001953 -2.18867188 8.32246094 -2.1953125 7.44921875 C-2.20578613 6.66893311 -2.21625977 5.88864746 -2.22705078 5.0847168 C-2 3 -2 3 0 0 Z " fill="#C88A23" transform="translate(405,362)"/>
<path d="M0 0 C1.98 0.495 1.98 0.495 4 1 C4.66 3.64 5.32 6.28 6 9 C3.69 7.02 1.38 5.04 -1 3 C-0.67 2.01 -0.34 1.02 0 0 Z " fill="#CA8D20" transform="translate(433,366)"/>
<path d="M0 0 C0.80566406 0.17144531 1.61132812 0.34289062 2.44140625 0.51953125 C4.4375 1.1875 4.4375 1.1875 5.4375 3.1875 C2.7975 3.1875 0.1575 3.1875 -2.5625 3.1875 C-2.5625 2.5275 -2.5625 1.8675 -2.5625 1.1875 C-4.5425 2.5075 -6.5225 3.8275 -8.5625 5.1875 C-6.63454321 -0.18323677 -5.63406158 -1.25703782 0 0 Z " fill="#D77911" transform="translate(440.5625,402.8125)"/>
<path d="M0 0 C-2.38457948 1.58971965 -4.6304124 2.86741593 -7.1875 4.125 C-7.90292969 4.47820312 -8.61835938 4.83140625 -9.35546875 5.1953125 C-9.89816406 5.46085937 -10.44085938 5.72640625 -11 6 C-11 5.34 -11 4.68 -11 4 C-10.34 4 -9.68 4 -9 4 C-8.87625 3.360625 -8.7525 2.72125 -8.625 2.0625 C-8.41875 1.381875 -8.2125 0.70125 -8 0 C-5.13822943 -1.43088528 -3.06624227 -0.59991697 0 0 Z " fill="#BE7D1D" transform="translate(412,346)"/>
<path d="M0 0 C1 2 1 2 0.375 4.4375 C-1.29368348 7.54731922 -2.81017219 8.56457749 -6 10 C-6.66 9.67 -7.32 9.34 -8 9 C-5.36 6.03 -2.72 3.06 0 0 Z " fill="#8C5C16" transform="translate(344,298)"/>
<path d="M0 0 C2.31 0.33 4.62 0.66 7 1 C7 1.66 7 2.32 7 3 C8.98 3 10.96 3 13 3 C13 3.33 13 3.66 13 4 C11.3973218 4.10824843 9.79254252 4.18570645 8.1875 4.25 C7.29417969 4.29640625 6.40085937 4.3428125 5.48046875 4.390625 C3 4 3 4 1.17578125 1.984375 C0.78777344 1.32953125 0.39976562 0.6746875 0 0 Z " fill="#BD6D13" transform="translate(408,434)"/>
<path d="M0 0 C2.97 0.495 2.97 0.495 6 1 C6.625 3.375 6.625 3.375 7 6 C6.34 6.66 5.68 7.32 5 8 C2.525 4.04 2.525 4.04 0 0 Z " fill="#554E55" transform="translate(334,197)"/>
<path d="M0 0 C1.65 0 3.3 0 5 0 C5.33 0.99 5.66 1.98 6 3 C3.69 3.33 1.38 3.66 -1 4 C-1.33 3.34 -1.66 2.68 -2 2 C-1.34 2 -0.68 2 0 2 C0 1.34 0 0.68 0 0 Z " fill="#7E7E7E" transform="translate(465,471)"/>
<path d="M0 0 C0.66 0.33 1.32 0.66 2 1 C-1.44615385 7.76923077 -1.44615385 7.76923077 -4.25 8.9375 C-4.8275 8.958125 -5.405 8.97875 -6 9 C-4.79618552 6.50638429 -3.54571278 4.31856917 -2 2 C-1.34 2 -0.68 2 0 2 C0 1.34 0 0.68 0 0 Z " fill="#885A12" transform="translate(315,330)"/>
<path d="M0 0 C1.65 0 3.3 0 5 0 C2.19195732 2.96404505 -0.18315774 5.44499019 -4 7 C-3.67 6.01 -3.34 5.02 -3 4 C-2.34 4 -1.68 4 -1 4 C-0.67 2.68 -0.34 1.36 0 0 Z " fill="#965011" transform="translate(445,460)"/>
<path d="M0 0 C0.66 0 1.32 0 2 0 C2 0.66 2 1.32 2 2 C2.66 2 3.32 2 4 2 C3.67 4.97 3.34 7.94 3 11 C2.67 11 2.34 11 2 11 C1.34 7.37 0.68 3.74 0 0 Z " fill="#8A5D16" transform="translate(376,360)"/>
<path d="M0 0 C2.66666667 0.66666667 5.33333333 1.33333333 8 2 C8.33 3.32 8.66 4.64 9 6 C8.01 6 7.02 6 6 6 C6 5.34 6 4.68 6 4 C5.195625 3.71125 4.39125 3.4225 3.5625 3.125 C1 2 1 2 0 0 Z " fill="#A46E1A" transform="translate(365,349)"/>
<path d="M0 0 C0.33 0.66 0.66 1.32 1 2 C-0.13474948 5.40424844 -0.96811304 6.21653709 -4 8 C-4.99 7.67 -5.98 7.34 -7 7 C-4.69 4.69 -2.38 2.38 0 0 Z " fill="#A8711C" transform="translate(330,315)"/>
<path d="M0 0 C0.66 0 1.32 0 2 0 C1.67 1.32 1.34 2.64 1 4 C0.34 4 -0.32 4 -1 4 C-1 5.32 -1 6.64 -1 8 C-2.32 8.33 -3.64 8.66 -5 9 C-3.50079488 5.88626628 -1.91847864 2.87771795 0 0 Z " fill="#8F6118" transform="translate(350,289)"/>
<path d="M0 0 C0.33 0 0.66 0 1 0 C0.38909774 6.47556391 0.38909774 6.47556391 -1.4375 8.9375 C-3 10 -3 10 -5 10 C-3.66654496 6.40992874 -2.1056769 3.20429093 0 0 Z " fill="#B0751F" transform="translate(363,270)"/>
<path d="M0 0 C2.32472205 2.85306797 3.7508258 5.54074837 5 9 C4.01 9.495 4.01 9.495 3 10 C2.67 8.68 2.34 7.36 2 6 C1.01 6 0.02 6 -1 6 C-0.67 4.02 -0.34 2.04 0 0 Z " fill="#AA6411" transform="translate(398,257)"/>
<path d="M0 0 C0 0.99 0 1.98 0 3 C-0.66 3 -1.32 3 -2 3 C-2 3.66 -2 4.32 -2 5 C-3.65 5.33 -5.3 5.66 -7 6 C-6 3 -6 3 -2.9375 1.3125 C-1.968125 0.879375 -0.99875 0.44625 0 0 Z " fill="#575757" transform="translate(467,468)"/>
<path d="M0 0 C-0.57584432 2.38564077 -1.22227595 4.66682784 -2 7 C-2.66 7 -3.32 7 -4 7 C-4.33 5.35 -4.66 3.7 -5 2 C-2 0 -2 0 0 0 Z " fill="#B16611" transform="translate(469,432)"/>
<path d="M0 0 C0.33 0 0.66 0 1 0 C1.34615998 5.65394631 0.43425238 9.03006806 -2 14 C-3.49341969 11.01316063 -2.40648676 9.04839022 -1.5625 5.875 C-1.27503906 4.77929688 -0.98757813 3.68359375 -0.69140625 2.5546875 C-0.46324219 1.71164062 -0.23507812 0.86859375 0 0 Z " fill="#F6950D" transform="translate(438,384)"/>
<path d="M0 0 C0.66 0 1.32 0 2 0 C2.99 2.31 3.98 4.62 5 7 C4.34 7.66 3.68 8.32 3 9 C2.01 6.03 1.02 3.06 0 0 Z " fill="#9A651A" transform="translate(297,424)"/>
<path d="M0 0 C2.99324263 1.0975223 3.84610901 1.67682892 5.25 4.625 C5.4975 5.40875 5.745 6.1925 6 7 C5.01 6.67 4.02 6.34 3 6 C3 5.34 3 4.68 3 4 C2.01 4 1.02 4 0 4 C0 2.68 0 1.36 0 0 Z " fill="#A16C1C" transform="translate(431,360)"/>
<path d="M0 0 C2 1.1875 2 1.1875 4 3 C4.25 5.6875 4.25 5.6875 4 8 C3.01 8.33 2.02 8.66 1 9 C1.020625 8.071875 1.04125 7.14375 1.0625 6.1875 C1.15769604 2.97713989 1.15769604 2.97713989 0 0 Z " fill="#F6970E" transform="translate(432,328)"/>
<path d="M0 0 C0.66 1.32 1.32 2.64 2 4 C0.68 5.32 -0.64 6.64 -2 8 C-2.66 7.67 -3.32 7.34 -4 7 C-2.68 4.69 -1.36 2.38 0 0 Z " fill="#A77018" transform="translate(372,255)"/>
<path d="M0 0 C1.25541557 3.76624671 0.37061958 5.37188934 -1 9 C-1.33 9 -1.66 9 -2 9 C-2 6.36 -2 3.72 -2 1 C-1.34 0.67 -0.68 0.34 0 0 Z " fill="#C48621" transform="translate(366,376)"/>
<path d="M0 0 C2.475 0.99 2.475 0.99 5 2 C5 2.99 5 3.98 5 5 C3.68 5 2.36 5 1 5 C1 4.01 1 3.02 1 2 C0.34 1.67 -0.32 1.34 -1 1 C-0.67 0.67 -0.34 0.34 0 0 Z " fill="#B37A20" transform="translate(426,356)"/>
<path d="M0 0 C6.4 -0.49230769 6.4 -0.49230769 9.4375 2 C10.2109375 2.99 10.2109375 2.99 11 4 C7.1936543 3.32829194 3.64793184 2.27253436 0 1 C0 0.67 0 0.34 0 0 Z " fill="#9A6A1D" transform="translate(351,356)"/>
<path d="M0 0 C2.31 0 4.62 0 7 0 C7.33 0.99 7.66 1.98 8 3 C6.68 3.33 5.36 3.66 4 4 C4 3.34 4 2.68 4 2 C2.68 1.34 1.36 0.68 0 0 Z " fill="#AC6D12" transform="translate(434,349)"/>
<path d="M0 0 C2 1.3125 2 1.3125 4 3 C4 3.99 4 4.98 4 6 C2.35 6 0.7 6 -1 6 C-0.67 4.02 -0.34 2.04 0 0 Z " fill="#C06C13" transform="translate(435,311)"/>
<path d="M0 0 C1.32 1.32 2.64 2.64 4 4 C3.67 4.66 3.34 5.32 3 6 C1.68 6 0.36 6 -1 6 C-0.67 4.02 -0.34 2.04 0 0 Z " fill="#B76813" transform="translate(405,270)"/>
<path d="M0 0 C2.97 0.495 2.97 0.495 6 1 C6 2.65 6 4.3 6 6 C4.5 4.625 4.5 4.625 3 3 C3 2.34 3 1.68 3 1 C1.02 1.99 1.02 1.99 -1 3 C-0.67 2.01 -0.34 1.02 0 0 Z " fill="#EA9513" transform="translate(374,254)"/>
<path d="M0 0 C2.91517292 1.07401108 4.77810176 1.77810176 7 4 C6.67 4.99 6.34 5.98 6 7 C4.02 4.69 2.04 2.38 0 0 Z " fill="#524C50" transform="translate(383,131)"/>
</svg>
